<svg width="285" height="400" viewBox="0 0 285 400" fill="none" xmlns="http://www.w3.org/2000/svg">
<g filter="url(#filter0_d_0_892)">
<path fill-rule="evenodd" clip-rule="evenodd" d="M71.0611 55H163.551C172.421 55 179.612 61.833 179.612 70.2619V279.191C179.612 287.62 172.421 294.453 163.551 294.453H71.0611C62.1908 294.453 55 287.62 55 279.191V70.2619C55 61.833 62.1908 55 71.0611 55Z" fill="#213648"/>
</g>
<path opacity="0.595562" fill-rule="evenodd" clip-rule="evenodd" d="M163.909 54.7266H70.6484C66.2943 54.9901 62.2788 56.9619 58.6017 60.6421C60.9665 58.5934 65.1843 55.852 70.7606 55.852C70.7606 55.852 160.079 55.852 163.797 55.852C169.373 55.852 173.591 58.5934 175.955 60.6421C172.278 56.9619 168.263 54.9901 163.909 54.7266Z" fill="url(#paint0_linear_0_892)" fill-opacity="0.65"/>
<path opacity="0.75" fill-rule="evenodd" clip-rule="evenodd" d="M177.089 276.809V71.5179C177.089 66.0098 175.049 63.9736 173.832 62.6661C172.615 61.3586 172.563 60.6918 174.312 61.6789C176.06 62.6661 179.557 65.5413 179.557 71.5179V276.809C179.557 282.785 176.06 285.661 174.312 286.648C172.563 287.635 172.615 286.968 173.832 285.661C175.049 284.353 177.089 282.317 177.089 276.809Z" fill="url(#paint1_linear_0_892)"/>
<path opacity="0.75" fill-rule="evenodd" clip-rule="evenodd" d="M57.4685 276.809V71.5179C57.4685 66.0098 59.5083 63.9736 60.7251 62.6661C61.942 61.3586 61.9938 60.6918 60.2454 61.6789C58.497 62.6661 55 65.5413 55 71.5179V276.809C55 282.785 58.497 285.661 60.2454 286.648C61.9938 287.635 61.942 286.968 60.7251 285.661C59.5083 284.353 57.4685 282.317 57.4685 276.809Z" fill="url(#paint2_linear_0_892)"/>
<path fill-rule="evenodd" clip-rule="evenodd" d="M53.7581 104.675C53.7581 104.012 54.2956 103.474 54.9586 103.474C55.6217 103.474 56.1592 104.012 56.1592 104.675V133.162C56.1592 133.825 55.6217 134.363 54.9586 134.363C54.2956 134.363 53.7581 133.825 53.7581 133.162V104.675Z" fill="#2E423C"/>
<path fill-rule="evenodd" clip-rule="evenodd" d="M178.315 129.868C178.315 129.205 178.853 128.667 179.516 128.667C180.179 128.667 180.716 129.205 180.716 129.868V150.003C180.716 150.666 180.179 151.204 179.516 151.204C178.853 151.204 178.315 150.666 178.315 150.003V129.868Z" fill="#2E423C"/>
<path fill-rule="evenodd" clip-rule="evenodd" d="M106.319 60.6997L70.3327 60.6997C64.962 60.6997 61.0487 64.3301 61.0487 69.0716V271.819C61.0487 278.001 67.0954 283.479 73.9327 283.479H160.667C167.253 283.479 173.551 277.958 173.551 271.819V69.6196C173.551 63.9366 169.3 60.7335 164.267 60.6997L127.71 60.6997C127.572 60.7222 125.06 61.7469 123.999 64.3301C122.938 66.9132 120.802 68.9724 118.464 68.9724H115.748C114.637 68.9724 111.711 67.9022 110.229 64.3301C108.748 60.758 106.458 60.7222 106.319 60.6997Z" fill="white"/>
<mask id="mask0_0_892" style="mask-type:luminance" maskUnits="userSpaceOnUse" x="61" y="60" width="113" height="224">
<path fill-rule="evenodd" clip-rule="evenodd" d="M106.319 60.6997L70.3327 60.6997C64.962 60.6997 61.0487 64.3301 61.0487 69.0716V271.819C61.0487 278.001 67.0954 283.479 73.9327 283.479H160.667C167.253 283.479 173.551 277.958 173.551 271.819V69.6196C173.551 63.9366 169.3 60.7335 164.267 60.6997L127.71 60.6997C127.572 60.7222 125.06 61.7469 123.999 64.3301C122.938 66.9132 120.802 68.9724 118.464 68.9724H115.748C114.637 68.9724 111.711 67.9022 110.229 64.3301C108.748 60.758 106.458 60.7222 106.319 60.6997Z" fill="white"/>
</mask>
<g mask="url(#mask0_0_892)">
<rect x="60.7581" y="60.7266" width="113" height="223" fill="url(#paint3_linear_0_892)"/>
<path fill-rule="evenodd" clip-rule="evenodd" d="M112.52 120.037V121.926H104.301V120.252C104.301 119.689 104.407 119.201 104.619 118.789C104.83 118.377 105.11 118.019 105.458 117.714C105.807 117.409 106.188 117.142 106.604 116.911C107.019 116.681 107.435 116.463 107.853 116.259C108.271 116.054 108.654 115.848 109.002 115.64C109.351 115.433 109.631 115.201 109.842 114.945C110.054 114.689 110.159 114.387 110.159 114.039C110.159 113.594 110.003 113.23 109.691 112.948C109.379 112.667 108.952 112.526 108.41 112.526C107.848 112.526 107.371 112.687 106.979 113.01C106.587 113.332 106.344 113.819 106.251 114.469H104.092C104.103 113.763 104.269 113.121 104.592 112.545C104.914 111.969 105.398 111.512 106.043 111.174C106.687 110.836 107.497 110.667 108.472 110.667C109.308 110.667 110.029 110.808 110.635 111.09C111.241 111.371 111.71 111.763 112.04 112.265C112.37 112.767 112.535 113.353 112.535 114.024C112.535 114.582 112.432 115.063 112.226 115.467C112.019 115.872 111.746 116.218 111.405 116.504C111.065 116.791 110.691 117.042 110.283 117.257C109.876 117.472 109.469 117.672 109.064 117.856C108.659 118.04 108.287 118.228 107.946 118.42C107.606 118.612 107.332 118.829 107.126 119.069C106.92 119.31 106.816 119.599 106.816 119.937V120.037H112.52ZM101.755 110.821V121.926H99.4649V113.609H97.4684V112.342C98.1081 112.342 98.6253 112.282 99.0199 112.161C99.4146 112.041 99.7099 111.867 99.906 111.639C100.102 111.411 100.218 111.139 100.254 110.821H101.755ZM116.497 116.581V114.177H114.021V116.581H116.497ZM116.497 119.484V121.88H114.021V119.484H116.497ZM125.412 121.926V119.469H127.137V117.587H125.412V110.821H123.191L118.091 117.626V119.469H123.245L123.237 121.926H125.412ZM120.181 117.587H123.245V113.517L120.181 117.587ZM132.369 122.095C133.349 122.095 134.192 121.876 134.899 121.439C135.606 121.001 136.149 120.34 136.528 119.457C136.907 118.574 137.097 117.469 137.097 116.143C137.097 115.032 136.912 114.066 136.543 113.244C136.175 112.422 135.646 111.787 134.957 111.339C134.268 110.891 133.449 110.667 132.5 110.667C131.654 110.667 130.916 110.829 130.287 111.151C129.658 111.474 129.167 111.919 128.817 112.488C128.466 113.056 128.29 113.704 128.29 114.431C128.29 115.153 128.457 115.776 128.79 116.301C129.122 116.826 129.581 117.23 130.167 117.514C130.753 117.798 131.424 117.94 132.183 117.94C132.601 117.94 132.98 117.885 133.32 117.775C133.661 117.665 133.959 117.509 134.214 117.307C134.47 117.105 134.669 116.868 134.814 116.596C134.876 117.482 134.805 118.199 134.601 118.747C134.397 119.295 134.093 119.694 133.688 119.945C133.283 120.196 132.812 120.321 132.276 120.321C131.791 120.321 131.388 120.187 131.069 119.918C130.749 119.649 130.542 119.3 130.449 118.87H128.298C128.345 119.52 128.559 120.087 128.94 120.571C129.322 121.055 129.815 121.43 130.419 121.696C131.022 121.962 131.672 122.095 132.369 122.095ZM131.231 115.679C131.572 115.999 132.018 116.159 132.57 116.159C132.884 116.159 133.19 116.088 133.487 115.947C133.783 115.807 134.027 115.629 134.218 115.414C134.409 115.199 134.504 114.976 134.504 114.746C134.51 114.249 134.431 113.823 134.268 113.467C134.106 113.111 133.879 112.838 133.587 112.649C133.296 112.459 132.957 112.365 132.57 112.365C132.214 112.365 131.897 112.447 131.618 112.611C131.339 112.774 131.12 113.005 130.96 113.302C130.8 113.599 130.72 113.942 130.72 114.331C130.72 114.909 130.891 115.359 131.231 115.679Z" fill="white"/>
</g>
<g clip-path="url(#clip0_0_892)">
<g filter="url(#filter1_d_0_892)">
<rect x="64.0023" y="134.727" width="105.004" height="42.5532" rx="2" fill="#FBFCFE"/>
</g>
<path d="M71.8731 152.037V151.612H74.6081V152.037H73.5056V155.227H73.0406V152.037H71.8731ZM75.1093 155.227V151.512H75.5593V153.022C75.6026 152.95 75.661 152.883 75.7343 152.822C75.8076 152.758 75.8968 152.707 76.0018 152.669C76.1068 152.629 76.2285 152.609 76.3668 152.609C76.5351 152.609 76.6876 152.641 76.8243 152.704C76.961 152.766 77.0693 152.854 77.1493 152.969C77.2293 153.084 77.2693 153.221 77.2693 153.379V155.227H76.8068V153.472C76.8068 153.317 76.7535 153.197 76.6468 153.114C76.5418 153.029 76.4043 152.987 76.2343 152.987C76.1193 152.987 76.011 153.006 75.9093 153.044C75.8076 153.081 75.7251 153.137 75.6618 153.214C75.6001 153.289 75.5693 153.385 75.5693 153.502V155.227H75.1093ZM78.3202 154.042C78.3202 154.205 78.3468 154.353 78.4002 154.487C78.4552 154.618 78.5377 154.723 78.6477 154.802C78.7593 154.88 78.8985 154.919 79.0652 154.919C79.2302 154.919 79.3718 154.881 79.4902 154.804C79.6102 154.727 79.6868 154.617 79.7202 154.472H80.1577C80.126 154.647 80.056 154.794 79.9477 154.914C79.8393 155.034 79.7085 155.125 79.5552 155.187C79.4018 155.247 79.2418 155.277 79.0752 155.277C78.8335 155.277 78.621 155.224 78.4377 155.119C78.2543 155.014 78.111 154.863 78.0077 154.667C77.9043 154.47 77.8527 154.234 77.8527 153.959C77.8527 153.687 77.8993 153.449 77.9927 153.244C78.086 153.039 78.221 152.879 78.3977 152.764C78.576 152.649 78.7902 152.592 79.0402 152.592C79.2835 152.592 79.4893 152.644 79.6577 152.749C79.826 152.854 79.9535 153.002 80.0402 153.194C80.1285 153.384 80.1727 153.61 80.1727 153.872V154.042H78.3202ZM78.3227 153.729H79.7277C79.7277 153.581 79.7027 153.447 79.6527 153.329C79.6027 153.209 79.526 153.115 79.4227 153.047C79.321 152.977 79.1927 152.942 79.0377 152.942C78.876 152.942 78.7418 152.981 78.6352 153.059C78.5302 153.136 78.451 153.235 78.3977 153.357C78.346 153.477 78.321 153.601 78.3227 153.729ZM81.9257 156.032V152.642H82.3857L82.3907 153.092C82.4207 153.038 82.459 152.982 82.5057 152.924C82.554 152.866 82.6124 152.812 82.6807 152.762C82.7507 152.712 82.8315 152.671 82.9232 152.639C83.0165 152.607 83.1224 152.592 83.2407 152.592C83.4474 152.592 83.629 152.639 83.7857 152.734C83.944 152.827 84.0674 152.971 84.1557 153.164C84.244 153.357 84.2882 153.602 84.2882 153.899C84.2882 154.196 84.2449 154.447 84.1582 154.652C84.0732 154.855 83.9499 155.01 83.7882 155.117C83.6265 155.223 83.4315 155.277 83.2032 155.277C83.0882 155.277 82.9857 155.26 82.8957 155.227C82.8074 155.195 82.7299 155.153 82.6632 155.102C82.5982 155.048 82.5432 154.992 82.4982 154.932C82.4549 154.872 82.419 154.814 82.3907 154.759V156.032H81.9257ZM83.1157 154.917C83.329 154.917 83.5032 154.836 83.6382 154.674C83.7732 154.511 83.8407 154.257 83.8407 153.914C83.8407 153.619 83.779 153.385 83.6557 153.212C83.5324 153.038 83.3524 152.952 83.1157 152.952C82.8757 152.952 82.694 153.041 82.5707 153.219C82.4474 153.396 82.3857 153.627 82.3857 153.914C82.3857 154.099 82.4132 154.267 82.4682 154.419C82.5232 154.571 82.6049 154.692 82.7132 154.782C82.8215 154.872 82.9557 154.917 83.1157 154.917ZM85.5753 155.277C85.4086 155.277 85.2611 155.247 85.1328 155.189C85.0044 155.129 84.9036 155.043 84.8303 154.932C84.7586 154.82 84.7228 154.685 84.7228 154.527C84.7228 154.24 84.8228 154.027 85.0228 153.887C85.2228 153.747 85.5436 153.672 85.9853 153.662L86.4478 153.649V153.447C86.4478 153.288 86.4003 153.163 86.3053 153.072C86.2103 152.978 86.0628 152.932 85.8628 152.932C85.7144 152.933 85.5836 152.968 85.4703 153.037C85.3586 153.105 85.2861 153.217 85.2528 153.372H84.8453C84.8553 153.203 84.9028 153.062 84.9878 152.947C85.0728 152.83 85.1911 152.742 85.3428 152.682C85.4961 152.622 85.6769 152.592 85.8853 152.592C86.1103 152.592 86.2969 152.623 86.4453 152.687C86.5953 152.75 86.7069 152.843 86.7803 152.967C86.8553 153.09 86.8928 153.242 86.8928 153.422V155.227H86.4978L86.4653 154.742C86.3653 154.943 86.2378 155.083 86.0828 155.162C85.9294 155.238 85.7603 155.277 85.5753 155.277ZM85.7153 154.944C85.8019 154.944 85.8878 154.928 85.9728 154.897C86.0594 154.865 86.1386 154.822 86.2103 154.769C86.2819 154.714 86.3386 154.653 86.3803 154.587C86.4236 154.518 86.4461 154.448 86.4478 154.377V153.934L86.0628 153.942C85.8661 153.945 85.7011 153.965 85.5678 154.002C85.4361 154.038 85.3369 154.096 85.2703 154.174C85.2053 154.252 85.1728 154.355 85.1728 154.482C85.1728 154.627 85.2228 154.74 85.3228 154.822C85.4244 154.903 85.5553 154.944 85.7153 154.944ZM87.8545 156.052C87.7029 156.052 87.5987 156.041 87.542 156.019C87.4854 155.997 87.457 155.987 87.457 155.987V155.687L87.7195 155.692C87.8162 155.695 87.8962 155.688 87.9595 155.672C88.0229 155.655 88.0737 155.632 88.112 155.604C88.1504 155.576 88.1795 155.544 88.1995 155.509C88.2212 155.474 88.2387 155.441 88.252 155.409L88.342 155.164L87.332 152.642H87.7995L88.562 154.637L89.3195 152.642H89.772L88.682 155.422C88.6154 155.585 88.5404 155.712 88.457 155.804C88.3754 155.896 88.2837 155.96 88.182 155.997C88.082 156.033 87.9729 156.052 87.8545 156.052ZM90.2656 155.227V152.642H90.7106V153.017C90.7822 152.903 90.8806 152.804 91.0056 152.719C91.1306 152.634 91.2931 152.592 91.4931 152.592C91.5864 152.592 91.6814 152.607 91.7781 152.639C91.8764 152.671 91.9664 152.718 92.0481 152.782C92.1297 152.845 92.1931 152.922 92.2381 153.014C92.3181 152.887 92.4264 152.786 92.5631 152.709C92.6997 152.631 92.8539 152.592 93.0256 152.592C93.1156 152.592 93.2097 152.606 93.3081 152.634C93.4064 152.661 93.4972 152.709 93.5806 152.779C93.6656 152.847 93.7347 152.943 93.7881 153.067C93.8414 153.188 93.8681 153.345 93.8681 153.537V155.227H93.4031V153.582C93.4031 153.425 93.3781 153.304 93.3281 153.219C93.2781 153.132 93.2122 153.072 93.1306 153.037C93.0506 153.002 92.9647 152.984 92.8731 152.984C92.7931 152.984 92.7081 153 92.6181 153.032C92.5281 153.063 92.4514 153.117 92.3881 153.192C92.3247 153.267 92.2931 153.369 92.2931 153.499V155.227H91.8331V153.447C91.8331 153.345 91.8056 153.26 91.7506 153.192C91.6972 153.123 91.6297 153.072 91.5481 153.037C91.4681 153.002 91.3881 152.984 91.3081 152.984C91.2197 152.984 91.1306 153.002 91.0406 153.037C90.9522 153.072 90.8772 153.127 90.8156 153.204C90.7556 153.279 90.7256 153.377 90.7256 153.499V155.227H90.2656ZM94.9217 154.042C94.9217 154.205 94.9484 154.353 95.0017 154.487C95.0567 154.618 95.1392 154.723 95.2492 154.802C95.3609 154.88 95.5001 154.919 95.6667 154.919C95.8317 154.919 95.9734 154.881 96.0917 154.804C96.2117 154.727 96.2884 154.617 96.3217 154.472H96.7592C96.7276 154.647 96.6576 154.794 96.5492 154.914C96.4409 155.034 96.3101 155.125 96.1567 155.187C96.0034 155.247 95.8434 155.277 95.6767 155.277C95.4351 155.277 95.2226 155.224 95.0392 155.119C94.8559 155.014 94.7126 154.863 94.6092 154.667C94.5059 154.47 94.4542 154.234 94.4542 153.959C94.4542 153.687 94.5009 153.449 94.5942 153.244C94.6876 153.039 94.8226 152.879 94.9992 152.764C95.1776 152.649 95.3917 152.592 95.6417 152.592C95.8851 152.592 96.0909 152.644 96.2592 152.749C96.4276 152.854 96.5551 153.002 96.6417 153.194C96.7301 153.384 96.7742 153.61 96.7742 153.872V154.042H94.9217ZM94.9242 153.729H96.3292C96.3292 153.581 96.3042 153.447 96.2542 153.329C96.2042 153.209 96.1276 153.115 96.0242 153.047C95.9226 152.977 95.7942 152.942 95.6392 152.942C95.4776 152.942 95.3434 152.981 95.2367 153.059C95.1317 153.136 95.0526 153.235 94.9992 153.357C94.9476 153.477 94.9226 153.601 94.9242 153.729ZM97.4091 155.227V152.642H97.8566V153.017C97.8983 152.945 97.9558 152.877 98.0291 152.814C98.1041 152.751 98.1941 152.7 98.2991 152.662C98.4058 152.623 98.5283 152.604 98.6666 152.604C98.8299 152.604 98.9799 152.637 99.1166 152.702C99.2549 152.767 99.3649 152.868 99.4466 153.007C99.5299 153.143 99.5716 153.32 99.5716 153.537V155.227H99.1091V153.582C99.1091 153.38 99.0558 153.231 98.9491 153.134C98.8441 153.036 98.7074 152.987 98.5391 152.987C98.4224 152.987 98.3133 153.006 98.2116 153.044C98.1099 153.081 98.0274 153.137 97.9641 153.214C97.9008 153.289 97.8691 153.384 97.8691 153.499V155.227H97.4091ZM101.486 152.979H100.904V154.587C100.904 154.678 100.913 154.746 100.931 154.789C100.951 154.831 100.984 154.857 101.029 154.869C101.075 154.881 101.139 154.887 101.219 154.887H101.501V155.197C101.469 155.208 101.421 155.218 101.356 155.227C101.293 155.235 101.214 155.239 101.119 155.239C100.94 155.239 100.802 155.215 100.704 155.167C100.605 155.118 100.536 155.047 100.496 154.952C100.458 154.857 100.439 154.74 100.439 154.602V152.979H100.019V152.642H100.451L100.564 151.889H100.904V152.639H101.486V152.979ZM103.303 155.227V151.512H103.753V153.022C103.796 152.95 103.854 152.883 103.928 152.822C104.001 152.758 104.09 152.707 104.195 152.669C104.3 152.629 104.422 152.609 104.56 152.609C104.728 152.609 104.881 152.641 105.018 152.704C105.154 152.766 105.263 152.854 105.343 152.969C105.423 153.084 105.463 153.221 105.463 153.379V155.227H105V153.472C105 153.317 104.947 153.197 104.84 153.114C104.735 153.029 104.598 152.987 104.428 152.987C104.313 152.987 104.204 153.006 104.103 153.044C104.001 153.081 103.918 153.137 103.855 153.214C103.793 153.289 103.763 153.385 103.763 153.502V155.227H103.303ZM106.889 155.277C106.722 155.277 106.575 155.247 106.446 155.189C106.318 155.129 106.217 155.043 106.144 154.932C106.072 154.82 106.036 154.685 106.036 154.527C106.036 154.24 106.136 154.027 106.336 153.887C106.536 153.747 106.857 153.672 107.299 153.662L107.761 153.649V153.447C107.761 153.288 107.714 153.163 107.619 153.072C107.524 152.978 107.376 152.932 107.176 152.932C107.028 152.933 106.897 152.968 106.784 153.037C106.672 153.105 106.6 153.217 106.566 153.372H106.159C106.169 153.203 106.216 153.062 106.301 152.947C106.386 152.83 106.505 152.742 106.656 152.682C106.81 152.622 106.99 152.592 107.199 152.592C107.424 152.592 107.61 152.623 107.759 152.687C107.909 152.75 108.02 152.843 108.094 152.967C108.169 153.09 108.206 153.242 108.206 153.422V155.227H107.811L107.779 154.742C107.679 154.943 107.551 155.083 107.396 155.162C107.243 155.238 107.074 155.277 106.889 155.277ZM107.029 154.944C107.115 154.944 107.201 154.928 107.286 154.897C107.373 154.865 107.452 154.822 107.524 154.769C107.595 154.714 107.652 154.653 107.694 154.587C107.737 154.518 107.76 154.448 107.761 154.377V153.934L107.376 153.942C107.18 153.945 107.015 153.965 106.881 154.002C106.75 154.038 106.65 154.096 106.584 154.174C106.519 154.252 106.486 154.355 106.486 154.482C106.486 154.627 106.536 154.74 106.636 154.822C106.738 154.903 106.869 154.944 107.029 154.944ZM109.87 155.277C109.69 155.277 109.522 155.249 109.367 155.194C109.214 155.137 109.086 155.05 108.985 154.932C108.883 154.812 108.819 154.659 108.792 154.474H109.212C109.235 154.576 109.277 154.661 109.337 154.729C109.399 154.796 109.475 154.847 109.567 154.882C109.659 154.915 109.759 154.932 109.867 154.932C110.04 154.932 110.18 154.899 110.287 154.834C110.394 154.769 110.447 154.669 110.447 154.534C110.447 154.439 110.419 154.363 110.362 154.307C110.307 154.248 110.221 154.206 110.105 154.179L109.57 154.047C109.361 153.997 109.195 153.918 109.07 153.812C108.945 153.705 108.882 153.556 108.882 153.364C108.88 153.212 108.916 153.079 108.99 152.964C109.063 152.849 109.173 152.758 109.32 152.692C109.466 152.625 109.649 152.592 109.867 152.592C110.147 152.592 110.373 152.655 110.545 152.782C110.718 152.907 110.808 153.091 110.815 153.334H110.407C110.39 153.211 110.335 153.113 110.24 153.042C110.146 152.968 110.02 152.932 109.862 152.932C109.697 152.932 109.563 152.965 109.46 153.032C109.356 153.097 109.305 153.198 109.305 153.337C109.305 153.428 109.341 153.501 109.415 153.554C109.488 153.606 109.596 153.649 109.74 153.684L110.257 153.814C110.377 153.846 110.475 153.887 110.552 153.939C110.63 153.991 110.692 154.048 110.737 154.112C110.784 154.175 110.816 154.242 110.835 154.312C110.855 154.38 110.865 154.446 110.865 154.509C110.865 154.667 110.825 154.804 110.745 154.919C110.666 155.032 110.553 155.121 110.405 155.184C110.258 155.246 110.08 155.277 109.87 155.277ZM113.921 155.277C113.769 155.277 113.641 155.257 113.536 155.217C113.433 155.177 113.348 155.126 113.281 155.064C113.214 155.001 113.163 154.937 113.126 154.872C113.089 154.805 113.063 154.747 113.046 154.697L112.996 155.227H112.643V151.512H113.108V153.052C113.13 153.008 113.163 152.961 113.206 152.909C113.251 152.857 113.308 152.807 113.378 152.759C113.448 152.711 113.531 152.671 113.626 152.639C113.723 152.607 113.833 152.592 113.956 152.592C114.279 152.592 114.536 152.704 114.726 152.929C114.918 153.154 115.013 153.486 115.013 153.924C115.013 154.196 114.973 154.433 114.891 154.637C114.809 154.838 114.688 154.996 114.526 155.109C114.364 155.221 114.163 155.277 113.921 155.277ZM113.838 154.922C114.048 154.922 114.219 154.841 114.351 154.679C114.483 154.516 114.548 154.257 114.548 153.902C114.548 153.6 114.487 153.367 114.363 153.202C114.242 153.035 114.063 152.952 113.828 152.952C113.657 152.952 113.518 152.989 113.413 153.064C113.31 153.137 113.233 153.245 113.183 153.387C113.135 153.528 113.11 153.7 113.108 153.902C113.108 154.263 113.164 154.524 113.276 154.684C113.389 154.842 113.577 154.922 113.838 154.922ZM115.947 154.042C115.947 154.205 115.974 154.353 116.027 154.487C116.082 154.618 116.165 154.723 116.275 154.802C116.386 154.88 116.525 154.919 116.692 154.919C116.857 154.919 116.999 154.881 117.117 154.804C117.237 154.727 117.314 154.617 117.347 154.472H117.785C117.753 154.647 117.683 154.794 117.575 154.914C117.466 155.034 117.335 155.125 117.182 155.187C117.029 155.247 116.869 155.277 116.702 155.277C116.46 155.277 116.248 155.224 116.065 155.119C115.881 155.014 115.738 154.863 115.635 154.667C115.531 154.47 115.48 154.234 115.48 153.959C115.48 153.687 115.526 153.449 115.62 153.244C115.713 153.039 115.848 152.879 116.025 152.764C116.203 152.649 116.417 152.592 116.667 152.592C116.91 152.592 117.116 152.644 117.285 152.749C117.453 152.854 117.58 153.002 117.667 153.194C117.755 153.384 117.8 153.61 117.8 153.872V154.042H115.947ZM115.95 153.729H117.355C117.355 153.581 117.33 153.447 117.28 153.329C117.23 153.209 117.153 153.115 117.05 153.047C116.948 152.977 116.82 152.942 116.665 152.942C116.503 152.942 116.369 152.981 116.262 153.059C116.157 153.136 116.078 153.235 116.025 153.357C115.973 153.477 115.948 153.601 115.95 153.729ZM118.765 154.042C118.765 154.205 118.791 154.353 118.845 154.487C118.9 154.618 118.982 154.723 119.092 154.802C119.204 154.88 119.343 154.919 119.51 154.919C119.675 154.919 119.816 154.881 119.935 154.804C120.055 154.727 120.131 154.617 120.165 154.472H120.602C120.57 154.647 120.5 154.794 120.392 154.914C120.284 155.034 120.153 155.125 120 155.187C119.846 155.247 119.686 155.277 119.52 155.277C119.278 155.277 119.065 155.224 118.882 155.119C118.699 155.014 118.555 154.863 118.452 154.667C118.349 154.47 118.297 154.234 118.297 153.959C118.297 153.687 118.344 153.449 118.437 153.244C118.53 153.039 118.665 152.879 118.842 152.764C119.02 152.649 119.235 152.592 119.485 152.592C119.728 152.592 119.934 152.644 120.102 152.749C120.27 152.854 120.398 153.002 120.485 153.194C120.573 153.384 120.617 153.61 120.617 153.872V154.042H118.765ZM118.767 153.729H120.172C120.172 153.581 120.147 153.447 120.097 153.329C120.047 153.209 119.97 153.115 119.867 153.047C119.765 152.977 119.637 152.942 119.482 152.942C119.32 152.942 119.186 152.981 119.08 153.059C118.975 153.136 118.895 153.235 118.842 153.357C118.79 153.477 118.765 153.601 118.767 153.729ZM121.252 155.227V152.642H121.699V153.017C121.741 152.945 121.799 152.877 121.872 152.814C121.947 152.751 122.037 152.7 122.142 152.662C122.249 152.623 122.371 152.604 122.509 152.604C122.673 152.604 122.823 152.637 122.959 152.702C123.098 152.767 123.208 152.868 123.289 153.007C123.373 153.143 123.414 153.32 123.414 153.537V155.227H122.952V153.582C122.952 153.38 122.899 153.231 122.792 153.134C122.687 153.036 122.55 152.987 122.382 152.987C122.265 152.987 122.156 153.006 122.054 153.044C121.953 153.081 121.87 153.137 121.807 153.214C121.744 153.289 121.712 153.384 121.712 153.499V155.227H121.252ZM125.29 156.032V152.642H125.75L125.755 153.092C125.785 153.038 125.823 152.982 125.87 152.924C125.918 152.866 125.977 152.812 126.045 152.762C126.115 152.712 126.196 152.671 126.287 152.639C126.381 152.607 126.487 152.592 126.605 152.592C126.812 152.592 126.993 152.639 127.15 152.734C127.308 152.827 127.432 152.971 127.52 153.164C127.608 153.357 127.652 153.602 127.652 153.899C127.652 154.196 127.609 154.447 127.522 154.652C127.437 154.855 127.314 155.01 127.152 155.117C126.991 155.223 126.796 155.277 126.567 155.277C126.452 155.277 126.35 155.26 126.26 155.227C126.172 155.195 126.094 155.153 126.027 155.102C125.962 155.048 125.907 154.992 125.862 154.932C125.819 154.872 125.783 154.814 125.755 154.759V156.032H125.29ZM126.48 154.917C126.693 154.917 126.867 154.836 127.002 154.674C127.137 154.511 127.205 154.257 127.205 153.914C127.205 153.619 127.143 153.385 127.02 153.212C126.897 153.038 126.717 152.952 126.48 152.952C126.24 152.952 126.058 153.041 125.935 153.219C125.812 153.396 125.75 153.627 125.75 153.914C125.75 154.099 125.777 154.267 125.832 154.419C125.887 154.571 125.969 154.692 126.077 154.782C126.186 154.872 126.32 154.917 126.48 154.917ZM128.259 155.227V152.642H128.699V153.139C128.742 153.016 128.803 152.914 128.881 152.834C128.96 152.752 129.049 152.692 129.149 152.652C129.25 152.612 129.355 152.592 129.464 152.592C129.502 152.592 129.54 152.594 129.576 152.599C129.613 152.604 129.641 152.612 129.661 152.624V153.072C129.636 153.06 129.604 153.052 129.564 153.049C129.525 153.044 129.493 153.042 129.466 153.042C129.363 153.035 129.266 153.042 129.176 153.062C129.086 153.08 129.007 153.112 128.939 153.159C128.87 153.206 128.816 153.267 128.776 153.344C128.738 153.419 128.719 153.511 128.719 153.619V155.227H128.259ZM131.166 155.277C130.928 155.277 130.719 155.226 130.541 155.124C130.363 155.021 130.224 154.87 130.126 154.672C130.028 154.473 129.979 154.231 129.979 153.944C129.979 153.674 130.024 153.437 130.116 153.234C130.208 153.031 130.342 152.873 130.519 152.762C130.697 152.648 130.913 152.592 131.166 152.592C131.404 152.592 131.611 152.644 131.786 152.749C131.963 152.852 132.099 153.005 132.196 153.207C132.293 153.408 132.341 153.654 132.341 153.944C132.341 154.207 132.296 154.439 132.206 154.639C132.118 154.839 131.986 154.996 131.811 155.109C131.638 155.221 131.423 155.277 131.166 155.277ZM131.166 154.912C131.321 154.912 131.452 154.872 131.559 154.794C131.665 154.716 131.746 154.603 131.801 154.457C131.856 154.31 131.884 154.136 131.884 153.934C131.884 153.749 131.859 153.583 131.811 153.437C131.763 153.288 131.685 153.171 131.579 153.084C131.474 152.997 131.336 152.954 131.166 152.954C131.009 152.954 130.877 152.993 130.769 153.072C130.66 153.148 130.578 153.26 130.521 153.407C130.466 153.553 130.439 153.729 130.439 153.934C130.439 154.116 130.464 154.281 130.514 154.429C130.564 154.577 130.642 154.695 130.749 154.782C130.855 154.868 130.994 154.912 131.166 154.912ZM133.976 152.592C134.161 152.592 134.328 152.627 134.476 152.699C134.625 152.769 134.745 152.869 134.839 152.999C134.934 153.129 134.993 153.282 135.016 153.459H134.606C134.591 153.369 134.556 153.287 134.501 153.212C134.448 153.137 134.377 153.077 134.289 153.032C134.2 152.987 134.097 152.964 133.979 152.964C133.757 152.964 133.577 153.044 133.439 153.204C133.3 153.364 133.231 153.609 133.231 153.939C133.231 154.237 133.295 154.477 133.421 154.657C133.55 154.835 133.738 154.924 133.986 154.924C134.105 154.924 134.207 154.902 134.294 154.857C134.382 154.81 134.453 154.749 134.506 154.674C134.56 154.597 134.594 154.516 134.609 154.429H135.011C134.99 154.602 134.931 154.752 134.836 154.879C134.741 155.006 134.62 155.104 134.471 155.174C134.325 155.242 134.16 155.277 133.976 155.277C133.745 155.277 133.539 155.226 133.359 155.124C133.18 155.022 133.04 154.872 132.939 154.674C132.837 154.476 132.786 154.232 132.786 153.944C132.786 153.674 132.832 153.438 132.924 153.237C133.017 153.033 133.152 152.875 133.329 152.762C133.507 152.648 133.723 152.592 133.976 152.592ZM135.972 154.042C135.972 154.205 135.998 154.353 136.052 154.487C136.107 154.618 136.189 154.723 136.299 154.802C136.411 154.88 136.55 154.919 136.717 154.919C136.882 154.919 137.023 154.881 137.142 154.804C137.262 154.727 137.338 154.617 137.372 154.472H137.809C137.777 154.647 137.707 154.794 137.599 154.914C137.491 155.034 137.36 155.125 137.207 155.187C137.053 155.247 136.893 155.277 136.727 155.277C136.485 155.277 136.272 155.224 136.089 155.119C135.906 155.014 135.762 154.863 135.659 154.667C135.556 154.47 135.504 154.234 135.504 153.959C135.504 153.687 135.551 153.449 135.644 153.244C135.737 153.039 135.872 152.879 136.049 152.764C136.227 152.649 136.442 152.592 136.692 152.592C136.935 152.592 137.141 152.644 137.309 152.749C137.477 152.854 137.605 153.002 137.692 153.194C137.78 153.384 137.824 153.61 137.824 153.872V154.042H135.972ZM135.974 153.729H137.379C137.379 153.581 137.354 153.447 137.304 153.329C137.254 153.209 137.177 153.115 137.074 153.047C136.972 152.977 136.844 152.942 136.689 152.942C136.527 152.942 136.393 152.981 136.287 153.059C136.182 153.136 136.102 153.235 136.049 153.357C135.997 153.477 135.972 153.601 135.974 153.729ZM139.357 155.277C139.177 155.277 139.009 155.249 138.854 155.194C138.701 155.137 138.574 155.05 138.472 154.932C138.37 154.812 138.306 154.659 138.279 154.474H138.699C138.723 154.576 138.764 154.661 138.824 154.729C138.886 154.796 138.963 154.847 139.054 154.882C139.146 154.915 139.246 154.932 139.354 154.932C139.528 154.932 139.668 154.899 139.774 154.834C139.881 154.769 139.934 154.669 139.934 154.534C139.934 154.439 139.906 154.363 139.849 154.307C139.794 154.248 139.709 154.206 139.592 154.179L139.057 154.047C138.849 153.997 138.682 153.918 138.557 153.812C138.432 153.705 138.369 153.556 138.369 153.364C138.368 153.212 138.404 153.079 138.477 152.964C138.55 152.849 138.66 152.758 138.807 152.692C138.954 152.625 139.136 152.592 139.354 152.592C139.634 152.592 139.86 152.655 140.032 152.782C140.205 152.907 140.295 153.091 140.302 153.334H139.894C139.878 153.211 139.822 153.113 139.727 153.042C139.634 152.968 139.508 152.932 139.349 152.932C139.184 152.932 139.05 152.965 138.947 153.032C138.844 153.097 138.792 153.198 138.792 153.337C138.792 153.428 138.829 153.501 138.902 153.554C138.975 153.606 139.084 153.649 139.227 153.684L139.744 153.814C139.864 153.846 139.963 153.887 140.039 153.939C140.118 153.991 140.179 154.048 140.224 154.112C140.271 154.175 140.304 154.242 140.322 154.312C140.342 154.38 140.352 154.446 140.352 154.509C140.352 154.667 140.312 154.804 140.232 154.919C140.154 155.032 140.04 155.121 139.892 155.184C139.745 155.246 139.567 155.277 139.357 155.277ZM141.872 155.277C141.692 155.277 141.524 155.249 141.369 155.194C141.216 155.137 141.088 155.05 140.987 154.932C140.885 154.812 140.821 154.659 140.794 154.474H141.214C141.237 154.576 141.279 154.661 141.339 154.729C141.401 154.796 141.477 154.847 141.569 154.882C141.661 154.915 141.761 154.932 141.869 154.932C142.042 154.932 142.182 154.899 142.289 154.834C142.396 154.769 142.449 154.669 142.449 154.534C142.449 154.439 142.421 154.363 142.364 154.307C142.309 154.248 142.223 154.206 142.107 154.179L141.572 154.047C141.363 153.997 141.197 153.918 141.072 153.812C140.947 153.705 140.884 153.556 140.884 153.364C140.882 153.212 140.918 153.079 140.992 152.964C141.065 152.849 141.175 152.758 141.322 152.692C141.468 152.625 141.651 152.592 141.869 152.592C142.149 152.592 142.375 152.655 142.547 152.782C142.72 152.907 142.81 153.091 142.817 153.334H142.409C142.392 153.211 142.337 153.113 142.242 153.042C142.148 152.968 142.022 152.932 141.864 152.932C141.699 152.932 141.565 152.965 141.462 153.032C141.358 153.097 141.307 153.198 141.307 153.337C141.307 153.428 141.343 153.501 141.417 153.554C141.49 153.606 141.598 153.649 141.742 153.684L142.259 153.814C142.379 153.846 142.477 153.887 142.554 153.939C142.632 153.991 142.694 154.048 142.739 154.112C142.786 154.175 142.818 154.242 142.837 154.312C142.857 154.38 142.867 154.446 142.867 154.509C142.867 154.667 142.827 154.804 142.747 154.919C142.668 155.032 142.555 155.121 142.407 155.184C142.26 155.246 142.082 155.277 141.872 155.277ZM143.843 154.042C143.843 154.205 143.869 154.353 143.923 154.487C143.978 154.618 144.06 154.723 144.17 154.802C144.282 154.88 144.421 154.919 144.588 154.919C144.753 154.919 144.894 154.881 145.013 154.804C145.133 154.727 145.209 154.617 145.243 154.472H145.68C145.648 154.647 145.578 154.794 145.47 154.914C145.362 155.034 145.231 155.125 145.078 155.187C144.924 155.247 144.764 155.277 144.598 155.277C144.356 155.277 144.143 155.224 143.96 155.119C143.777 155.014 143.633 154.863 143.53 154.667C143.427 154.47 143.375 154.234 143.375 153.959C143.375 153.687 143.422 153.449 143.515 153.244C143.608 153.039 143.743 152.879 143.92 152.764C144.098 152.649 144.313 152.592 144.563 152.592C144.806 152.592 145.012 152.644 145.18 152.749C145.348 152.854 145.476 153.002 145.563 153.194C145.651 153.384 145.695 153.61 145.695 153.872V154.042H143.843ZM143.845 153.729H145.25C145.25 153.581 145.225 153.447 145.175 153.329C145.125 153.209 145.048 153.115 144.945 153.047C144.843 152.977 144.715 152.942 144.56 152.942C144.398 152.942 144.264 152.981 144.158 153.059C144.053 153.136 143.973 153.235 143.92 153.357C143.868 153.477 143.843 153.601 143.845 153.729ZM147.263 155.277C146.928 155.277 146.662 155.162 146.465 154.932C146.268 154.702 146.17 154.366 146.17 153.924C146.17 153.656 146.209 153.422 146.288 153.222C146.368 153.022 146.486 152.867 146.643 152.757C146.799 152.647 146.994 152.592 147.228 152.592C147.351 152.592 147.46 152.607 147.555 152.639C147.652 152.671 147.735 152.711 147.805 152.759C147.875 152.807 147.932 152.857 147.975 152.909C148.02 152.961 148.053 153.008 148.075 153.052V151.512H148.54V155.227H148.188L148.138 154.697C148.121 154.747 148.094 154.805 148.058 154.872C148.021 154.937 147.969 155.001 147.903 155.064C147.836 155.126 147.75 155.177 147.645 155.217C147.542 155.257 147.414 155.277 147.263 155.277ZM147.345 154.922C147.607 154.922 147.793 154.842 147.905 154.684C148.018 154.524 148.075 154.263 148.075 153.902C148.073 153.7 148.048 153.528 147.998 153.387C147.949 153.245 147.873 153.137 147.768 153.064C147.664 152.989 147.527 152.952 147.355 152.952C147.142 152.952 146.968 153.027 146.835 153.179C146.702 153.331 146.635 153.572 146.635 153.902C146.635 154.225 146.695 154.476 146.815 154.654C146.937 154.832 147.113 154.922 147.345 154.922ZM149.196 155.227V154.637H149.746V155.227H149.196ZM71.8731 159.037V158.612H74.6081V159.037H73.5056V162.227H73.0406V159.037H71.8731ZM75.1093 162.227V158.512H75.5593V160.022C75.6026 159.95 75.661 159.883 75.7343 159.822C75.8076 159.758 75.8968 159.707 76.0018 159.669C76.1068 159.629 76.2285 159.609 76.3668 159.609C76.5351 159.609 76.6876 159.641 76.8243 159.704C76.961 159.766 77.0693 159.854 77.1493 159.969C77.2293 160.084 77.2693 160.221 77.2693 160.379V162.227H76.8068V160.472C76.8068 160.317 76.7535 160.197 76.6468 160.114C76.5418 160.029 76.4043 159.987 76.2343 159.987C76.1193 159.987 76.011 160.006 75.9093 160.044C75.8076 160.081 75.7251 160.137 75.6618 160.214C75.6001 160.289 75.5693 160.385 75.5693 160.502V162.227H75.1093ZM78.3202 161.042C78.3202 161.205 78.3468 161.353 78.4002 161.487C78.4552 161.618 78.5377 161.723 78.6477 161.802C78.7593 161.88 78.8985 161.919 79.0652 161.919C79.2302 161.919 79.3718 161.881 79.4902 161.804C79.6102 161.727 79.6868 161.617 79.7202 161.472H80.1577C80.126 161.647 80.056 161.794 79.9477 161.914C79.8393 162.034 79.7085 162.125 79.5552 162.187C79.4018 162.247 79.2418 162.277 79.0752 162.277C78.8335 162.277 78.621 162.224 78.4377 162.119C78.2543 162.014 78.111 161.863 78.0077 161.667C77.9043 161.47 77.8527 161.234 77.8527 160.959C77.8527 160.687 77.8993 160.449 77.9927 160.244C78.086 160.039 78.221 159.879 78.3977 159.764C78.576 159.649 78.7902 159.592 79.0402 159.592C79.2835 159.592 79.4893 159.644 79.6577 159.749C79.826 159.854 79.9535 160.002 80.0402 160.194C80.1285 160.384 80.1727 160.61 80.1727 160.872V161.042H78.3202ZM78.3227 160.729H79.7277C79.7277 160.581 79.7027 160.447 79.6527 160.329C79.6027 160.209 79.526 160.115 79.4227 160.047C79.321 159.977 79.1927 159.942 79.0377 159.942C78.876 159.942 78.7418 159.981 78.6352 160.059C78.5302 160.136 78.451 160.235 78.3977 160.357C78.346 160.477 78.321 160.601 78.3227 160.729ZM83.239 159.979H82.6565V161.587C82.6565 161.678 82.6657 161.746 82.684 161.789C82.704 161.831 82.7365 161.857 82.7815 161.869C82.8282 161.881 82.8915 161.887 82.9715 161.887H83.254V162.197C83.2224 162.208 83.174 162.218 83.109 162.227C83.0457 162.235 82.9665 162.239 82.8715 162.239C82.6932 162.239 82.5549 162.215 82.4565 162.167C82.3582 162.118 82.289 162.047 82.249 161.952C82.2107 161.857 82.1915 161.74 82.1915 161.602V159.979H81.7715V159.642H82.204L82.3165 158.889H82.6565V159.639H83.239V159.979ZM84.8624 162.277C84.6241 162.277 84.4157 162.226 84.2374 162.124C84.0591 162.021 83.9207 161.87 83.8224 161.672C83.7241 161.473 83.6749 161.231 83.6749 160.944C83.6749 160.674 83.7207 160.437 83.8124 160.234C83.9041 160.031 84.0382 159.873 84.2149 159.762C84.3932 159.648 84.6091 159.592 84.8624 159.592C85.1007 159.592 85.3074 159.644 85.4824 159.749C85.6591 159.852 85.7957 160.005 85.8924 160.207C85.9891 160.408 86.0374 160.654 86.0374 160.944C86.0374 161.207 85.9924 161.439 85.9024 161.639C85.8141 161.839 85.6824 161.996 85.5074 162.109C85.3341 162.221 85.1191 162.277 84.8624 162.277ZM84.8624 161.912C85.0174 161.912 85.1482 161.872 85.2549 161.794C85.3616 161.716 85.4424 161.603 85.4974 161.457C85.5524 161.31 85.5799 161.136 85.5799 160.934C85.5799 160.749 85.5557 160.583 85.5074 160.437C85.4591 160.288 85.3816 160.171 85.2749 160.084C85.1699 159.997 85.0324 159.954 84.8624 159.954C84.7057 159.954 84.5732 159.993 84.4649 160.072C84.3566 160.148 84.2741 160.26 84.2174 160.407C84.1624 160.553 84.1349 160.729 84.1349 160.934C84.1349 161.116 84.1599 161.281 84.2099 161.429C84.2599 161.577 84.3382 161.695 84.4449 161.782C84.5516 161.868 84.6907 161.912 84.8624 161.912ZM87.8728 159.979H87.2903V161.587C87.2903 161.678 87.2995 161.746 87.3178 161.789C87.3378 161.831 87.3703 161.857 87.4153 161.869C87.462 161.881 87.5253 161.887 87.6053 161.887H87.8878V162.197C87.8562 162.208 87.8078 162.218 87.7428 162.227C87.6795 162.235 87.6003 162.239 87.5053 162.239C87.327 162.239 87.1887 162.215 87.0903 162.167C86.992 162.118 86.9228 162.047 86.8828 161.952C86.8445 161.857 86.8253 161.74 86.8253 161.602V159.979H86.4053V159.642H86.8378L86.9503 158.889H87.2903V159.639H87.8728V159.979ZM89.2325 162.277C89.0658 162.277 88.9183 162.247 88.79 162.189C88.6617 162.129 88.5608 162.043 88.4875 161.932C88.4158 161.82 88.38 161.685 88.38 161.527C88.38 161.24 88.48 161.027 88.68 160.887C88.88 160.747 89.2008 160.672 89.6425 160.662L90.105 160.649V160.447C90.105 160.288 90.0575 160.163 89.9625 160.072C89.8675 159.978 89.72 159.932 89.52 159.932C89.3717 159.933 89.2408 159.968 89.1275 160.037C89.0158 160.105 88.9433 160.217 88.91 160.372H88.5025C88.5125 160.203 88.56 160.062 88.645 159.947C88.73 159.83 88.8483 159.742 89 159.682C89.1533 159.622 89.3342 159.592 89.5425 159.592C89.7675 159.592 89.9542 159.623 90.1025 159.687C90.2525 159.75 90.3642 159.843 90.4375 159.967C90.5125 160.09 90.55 160.242 90.55 160.422V162.227H90.155L90.1225 161.742C90.0225 161.943 89.895 162.083 89.74 162.162C89.5867 162.238 89.4175 162.277 89.2325 162.277ZM89.3725 161.944C89.4592 161.944 89.545 161.928 89.63 161.897C89.7167 161.865 89.7958 161.822 89.8675 161.769C89.9392 161.714 89.9958 161.653 90.0375 161.587C90.0808 161.518 90.1033 161.448 90.105 161.377V160.934L89.72 160.942C89.5233 160.945 89.3583 160.965 89.225 161.002C89.0933 161.038 88.9942 161.096 88.9275 161.174C88.8625 161.252 88.83 161.355 88.83 161.482C88.83 161.627 88.88 161.74 88.98 161.822C89.0817 161.903 89.2125 161.944 89.3725 161.944ZM91.9923 162.259C91.8523 162.259 91.7389 162.24 91.6523 162.202C91.5673 162.163 91.5014 162.112 91.4548 162.047C91.4098 161.982 91.3789 161.907 91.3623 161.824C91.3473 161.739 91.3398 161.652 91.3398 161.562V158.512H91.7948V161.517C91.7948 161.647 91.8198 161.744 91.8698 161.809C91.9214 161.874 91.9931 161.91 92.0848 161.917L92.2248 161.919V162.219C92.1864 162.231 92.1464 162.24 92.1048 162.247C92.0631 162.255 92.0256 162.259 91.9923 162.259ZM94.6964 162.277C94.5297 162.277 94.3822 162.247 94.2539 162.189C94.1255 162.129 94.0247 162.043 93.9514 161.932C93.8797 161.82 93.8439 161.685 93.8439 161.527C93.8439 161.24 93.9439 161.027 94.1439 160.887C94.3439 160.747 94.6647 160.672 95.1064 160.662L95.5689 160.649V160.447C95.5689 160.288 95.5214 160.163 95.4264 160.072C95.3314 159.978 95.1839 159.932 94.9839 159.932C94.8355 159.933 94.7047 159.968 94.5914 160.037C94.4797 160.105 94.4072 160.217 94.3739 160.372H93.9664C93.9764 160.203 94.0239 160.062 94.1089 159.947C94.1939 159.83 94.3122 159.742 94.4639 159.682C94.6172 159.622 94.798 159.592 95.0064 159.592C95.2314 159.592 95.418 159.623 95.5664 159.687C95.7164 159.75 95.828 159.843 95.9014 159.967C95.9764 160.09 96.0139 160.242 96.0139 160.422V162.227H95.6189L95.5864 161.742C95.4864 161.943 95.3589 162.083 95.2039 162.162C95.0505 162.238 94.8814 162.277 94.6964 162.277ZM94.8364 161.944C94.923 161.944 95.0089 161.928 95.0939 161.897C95.1805 161.865 95.2597 161.822 95.3314 161.769C95.403 161.714 95.4597 161.653 95.5014 161.587C95.5447 161.518 95.5672 161.448 95.5689 161.377V160.934L95.1839 160.942C94.9872 160.945 94.8222 160.965 94.6889 161.002C94.5572 161.038 94.458 161.096 94.3914 161.174C94.3264 161.252 94.2939 161.355 94.2939 161.482C94.2939 161.627 94.3439 161.74 94.4439 161.822C94.5455 161.903 94.6764 161.944 94.8364 161.944ZM96.8036 162.227V159.642H97.2486V160.017C97.3203 159.903 97.4186 159.804 97.5436 159.719C97.6686 159.634 97.8311 159.592 98.0311 159.592C98.1245 159.592 98.2195 159.607 98.3161 159.639C98.4145 159.671 98.5045 159.718 98.5861 159.782C98.6678 159.845 98.7311 159.922 98.7761 160.014C98.8561 159.887 98.9645 159.786 99.1011 159.709C99.2378 159.631 99.392 159.592 99.5636 159.592C99.6536 159.592 99.7478 159.606 99.8461 159.634C99.9445 159.661 100.035 159.709 100.119 159.779C100.204 159.847 100.273 159.943 100.326 160.067C100.379 160.188 100.406 160.345 100.406 160.537V162.227H99.9411V160.582C99.9411 160.425 99.9161 160.304 99.8661 160.219C99.8161 160.132 99.7503 160.072 99.6686 160.037C99.5886 160.002 99.5028 159.984 99.4111 159.984C99.3311 159.984 99.2461 160 99.1561 160.032C99.0661 160.063 98.9895 160.117 98.9261 160.192C98.8628 160.267 98.8311 160.369 98.8311 160.499V162.227H98.3711V160.447C98.3711 160.345 98.3436 160.26 98.2886 160.192C98.2353 160.123 98.1678 160.072 98.0861 160.037C98.0061 160.002 97.9261 159.984 97.8461 159.984C97.7578 159.984 97.6686 160.002 97.5786 160.037C97.4903 160.072 97.4153 160.127 97.3536 160.204C97.2936 160.279 97.2636 160.377 97.2636 160.499V162.227H96.8036ZM102.157 162.277C101.919 162.277 101.711 162.226 101.532 162.124C101.354 162.021 101.216 161.87 101.117 161.672C101.019 161.473 100.97 161.231 100.97 160.944C100.97 160.674 101.016 160.437 101.107 160.234C101.199 160.031 101.333 159.873 101.51 159.762C101.688 159.648 101.904 159.592 102.157 159.592C102.396 159.592 102.602 159.644 102.777 159.749C102.954 159.852 103.091 160.005 103.187 160.207C103.284 160.408 103.332 160.654 103.332 160.944C103.332 161.207 103.287 161.439 103.197 161.639C103.109 161.839 102.977 161.996 102.802 162.109C102.629 162.221 102.414 162.277 102.157 162.277ZM102.157 161.912C102.312 161.912 102.443 161.872 102.55 161.794C102.656 161.716 102.737 161.603 102.792 161.457C102.847 161.31 102.875 161.136 102.875 160.934C102.875 160.749 102.851 160.583 102.802 160.437C102.754 160.288 102.676 160.171 102.57 160.084C102.465 159.997 102.327 159.954 102.157 159.954C102.001 159.954 101.868 159.993 101.76 160.072C101.651 160.148 101.569 160.26 101.512 160.407C101.457 160.553 101.43 160.729 101.43 160.934C101.43 161.116 101.455 161.281 101.505 161.429C101.555 161.577 101.633 161.695 101.74 161.782C101.846 161.868 101.986 161.912 102.157 161.912ZM104.843 162.277C104.708 162.275 104.581 162.256 104.461 162.219C104.343 162.181 104.238 162.125 104.146 162.052C104.054 161.978 103.982 161.887 103.928 161.779C103.877 161.669 103.851 161.542 103.851 161.397V159.642H104.313V161.349C104.313 161.517 104.365 161.654 104.468 161.759C104.573 161.864 104.731 161.917 104.941 161.917C105.131 161.917 105.283 161.867 105.398 161.769C105.515 161.669 105.573 161.521 105.573 161.324V159.642H106.033V162.227H105.666L105.618 161.732C105.587 161.862 105.533 161.967 105.456 162.047C105.381 162.127 105.29 162.186 105.183 162.224C105.078 162.261 104.965 162.278 104.843 162.277ZM106.789 162.227V159.642H107.236V160.017C107.278 159.945 107.336 159.877 107.409 159.814C107.484 159.751 107.574 159.7 107.679 159.662C107.786 159.623 107.908 159.604 108.046 159.604C108.21 159.604 108.36 159.637 108.496 159.702C108.635 159.767 108.745 159.868 108.826 160.007C108.91 160.143 108.951 160.32 108.951 160.537V162.227H108.489V160.582C108.489 160.38 108.436 160.231 108.329 160.134C108.224 160.036 108.087 159.987 107.919 159.987C107.802 159.987 107.693 160.006 107.591 160.044C107.49 160.081 107.407 160.137 107.344 160.214C107.281 160.289 107.249 160.384 107.249 160.499V162.227H106.789ZM110.866 159.979H110.283V161.587C110.283 161.678 110.293 161.746 110.311 161.789C110.331 161.831 110.363 161.857 110.408 161.869C110.455 161.881 110.518 161.887 110.598 161.887H110.881V162.197C110.849 162.208 110.801 162.218 110.736 162.227C110.673 162.235 110.593 162.239 110.498 162.239C110.32 162.239 110.182 162.215 110.083 162.167C109.985 162.118 109.916 162.047 109.876 161.952C109.838 161.857 109.818 161.74 109.818 161.602V159.979H109.398V159.642H109.831L109.943 158.889H110.283V159.639H110.866V159.979ZM113.552 162.277C113.217 162.277 112.951 162.162 112.754 161.932C112.557 161.702 112.459 161.366 112.459 160.924C112.459 160.656 112.498 160.422 112.577 160.222C112.657 160.022 112.775 159.867 112.932 159.757C113.088 159.647 113.283 159.592 113.517 159.592C113.64 159.592 113.749 159.607 113.844 159.639C113.941 159.671 114.024 159.711 114.094 159.759C114.164 159.807 114.221 159.857 114.264 159.909C114.309 159.961 114.342 160.008 114.364 160.052V158.512H114.829V162.227H114.477L114.427 161.697C114.41 161.747 114.383 161.805 114.347 161.872C114.31 161.937 114.258 162.001 114.192 162.064C114.125 162.126 114.039 162.177 113.934 162.217C113.831 162.257 113.703 162.277 113.552 162.277ZM113.634 161.922C113.896 161.922 114.082 161.842 114.194 161.684C114.307 161.524 114.364 161.263 114.364 160.902C114.362 160.7 114.337 160.528 114.287 160.387C114.238 160.245 114.162 160.137 114.057 160.064C113.953 159.989 113.816 159.952 113.644 159.952C113.431 159.952 113.257 160.027 113.124 160.179C112.991 160.331 112.924 160.572 112.924 160.902C112.924 161.225 112.984 161.476 113.104 161.654C113.226 161.832 113.402 161.922 113.634 161.922ZM115.923 161.042C115.923 161.205 115.949 161.353 116.003 161.487C116.058 161.618 116.14 161.723 116.25 161.802C116.362 161.88 116.501 161.919 116.668 161.919C116.833 161.919 116.974 161.881 117.093 161.804C117.213 161.727 117.289 161.617 117.323 161.472H117.76C117.729 161.647 117.659 161.794 117.55 161.914C117.442 162.034 117.311 162.125 117.158 162.187C117.004 162.247 116.844 162.277 116.678 162.277C116.436 162.277 116.224 162.224 116.04 162.119C115.857 162.014 115.714 161.863 115.61 161.667C115.507 161.47 115.455 161.234 115.455 160.959C115.455 160.687 115.502 160.449 115.595 160.244C115.689 160.039 115.824 159.879 116 159.764C116.179 159.649 116.393 159.592 116.643 159.592C116.886 159.592 117.092 159.644 117.26 159.749C117.429 159.854 117.556 160.002 117.643 160.194C117.731 160.384 117.775 160.61 117.775 160.872V161.042H115.923ZM115.925 160.729H117.33C117.33 160.581 117.305 160.447 117.255 160.329C117.205 160.209 117.129 160.115 117.025 160.047C116.924 159.977 116.795 159.942 116.64 159.942C116.479 159.942 116.344 159.981 116.238 160.059C116.133 160.136 116.054 160.235 116 160.357C115.949 160.477 115.924 160.601 115.925 160.729ZM119.343 162.277C119.008 162.277 118.742 162.162 118.545 161.932C118.348 161.702 118.25 161.366 118.25 160.924C118.25 160.656 118.289 160.422 118.368 160.222C118.448 160.022 118.566 159.867 118.723 159.757C118.879 159.647 119.074 159.592 119.308 159.592C119.431 159.592 119.54 159.607 119.635 159.639C119.732 159.671 119.815 159.711 119.885 159.759C119.955 159.807 120.012 159.857 120.055 159.909C120.1 159.961 120.133 160.008 120.155 160.052V158.512H120.62V162.227H120.268L120.218 161.697C120.201 161.747 120.174 161.805 120.138 161.872C120.101 161.937 120.049 162.001 119.983 162.064C119.916 162.126 119.83 162.177 119.725 162.217C119.622 162.257 119.494 162.277 119.343 162.277ZM119.425 161.922C119.687 161.922 119.873 161.842 119.985 161.684C120.098 161.524 120.155 161.263 120.155 160.902C120.153 160.7 120.128 160.528 120.078 160.387C120.029 160.245 119.953 160.137 119.848 160.064C119.744 159.989 119.607 159.952 119.435 159.952C119.222 159.952 119.048 160.027 118.915 160.179C118.782 160.331 118.715 160.572 118.715 160.902C118.715 161.225 118.775 161.476 118.895 161.654C119.017 161.832 119.193 161.922 119.425 161.922ZM122.334 162.277C122.199 162.275 122.071 162.256 121.951 162.219C121.833 162.181 121.728 162.125 121.636 162.052C121.545 161.978 121.472 161.887 121.419 161.779C121.367 161.669 121.341 161.542 121.341 161.397V159.642H121.804V161.349C121.804 161.517 121.855 161.654 121.959 161.759C122.064 161.864 122.221 161.917 122.431 161.917C122.621 161.917 122.774 161.867 122.889 161.769C123.005 161.669 123.064 161.521 123.064 161.324V159.642H123.524V162.227H123.156L123.109 161.732C123.077 161.862 123.023 161.967 122.946 162.047C122.871 162.127 122.78 162.186 122.674 162.224C122.569 162.261 122.455 162.278 122.334 162.277ZM125.275 159.592C125.46 159.592 125.627 159.627 125.775 159.699C125.923 159.769 126.044 159.869 126.138 159.999C126.233 160.129 126.292 160.282 126.315 160.459H125.905C125.89 160.369 125.855 160.287 125.8 160.212C125.747 160.137 125.676 160.077 125.588 160.032C125.499 159.987 125.396 159.964 125.278 159.964C125.056 159.964 124.876 160.044 124.738 160.204C124.599 160.364 124.53 160.609 124.53 160.939C124.53 161.237 124.593 161.477 124.72 161.657C124.848 161.835 125.037 161.924 125.285 161.924C125.403 161.924 125.506 161.902 125.593 161.857C125.681 161.81 125.752 161.749 125.805 161.674C125.858 161.597 125.893 161.516 125.908 161.429H126.31C126.288 161.602 126.23 161.752 126.135 161.879C126.04 162.006 125.918 162.104 125.77 162.174C125.623 162.242 125.458 162.277 125.275 162.277C125.043 162.277 124.838 162.226 124.658 162.124C124.479 162.022 124.339 161.872 124.238 161.674C124.136 161.476 124.085 161.232 124.085 160.944C124.085 160.674 124.131 160.438 124.223 160.237C124.316 160.033 124.451 159.875 124.628 159.762C124.806 159.648 125.022 159.592 125.275 159.592ZM128.171 159.979H127.588V161.587C127.588 161.678 127.597 161.746 127.616 161.789C127.636 161.831 127.668 161.857 127.713 161.869C127.76 161.881 127.823 161.887 127.903 161.887H128.186V162.197C128.154 162.208 128.106 162.218 128.041 162.227C127.977 162.235 127.898 162.239 127.803 162.239C127.625 162.239 127.487 162.215 127.388 162.167C127.29 162.118 127.221 162.047 127.181 161.952C127.142 161.857 127.123 161.74 127.123 161.602V159.979H126.703V159.642H127.136L127.248 158.889H127.588V159.639H128.171V159.979ZM129.097 161.042C129.097 161.205 129.123 161.353 129.177 161.487C129.232 161.618 129.314 161.723 129.424 161.802C129.536 161.88 129.675 161.919 129.842 161.919C130.007 161.919 130.148 161.881 130.267 161.804C130.387 161.727 130.463 161.617 130.497 161.472H130.934C130.902 161.647 130.832 161.794 130.724 161.914C130.616 162.034 130.485 162.125 130.332 162.187C130.178 162.247 130.018 162.277 129.852 162.277C129.61 162.277 129.397 162.224 129.214 162.119C129.031 162.014 128.887 161.863 128.784 161.667C128.681 161.47 128.629 161.234 128.629 160.959C128.629 160.687 128.676 160.449 128.769 160.244C128.862 160.039 128.997 159.879 129.174 159.764C129.352 159.649 129.567 159.592 129.817 159.592C130.06 159.592 130.266 159.644 130.434 159.749C130.602 159.854 130.73 160.002 130.817 160.194C130.905 160.384 130.949 160.61 130.949 160.872V161.042H129.097ZM129.099 160.729H130.504C130.504 160.581 130.479 160.447 130.429 160.329C130.379 160.209 130.302 160.115 130.199 160.047C130.097 159.977 129.969 159.942 129.814 159.942C129.652 159.942 129.518 159.981 129.412 160.059C129.307 160.136 129.227 160.235 129.174 160.357C129.122 160.477 129.097 160.601 129.099 160.729ZM132.516 162.277C132.181 162.277 131.916 162.162 131.719 161.932C131.522 161.702 131.424 161.366 131.424 160.924C131.424 160.656 131.463 160.422 131.541 160.222C131.621 160.022 131.74 159.867 131.896 159.757C132.053 159.647 132.248 159.592 132.481 159.592C132.605 159.592 132.714 159.607 132.809 159.639C132.906 159.671 132.989 159.711 133.059 159.759C133.129 159.807 133.186 159.857 133.229 159.909C133.274 159.961 133.307 160.008 133.329 160.052V158.512H133.794V162.227H133.441L133.391 161.697C133.375 161.747 133.348 161.805 133.311 161.872C133.275 161.937 133.223 162.001 133.156 162.064C133.09 162.126 133.004 162.177 132.899 162.217C132.796 162.257 132.668 162.277 132.516 162.277ZM132.599 161.922C132.861 161.922 133.047 161.842 133.159 161.684C133.272 161.524 133.329 161.263 133.329 160.902C133.327 160.7 133.301 160.528 133.251 160.387C133.203 160.245 133.126 160.137 133.021 160.064C132.918 159.989 132.781 159.952 132.609 159.952C132.396 159.952 132.222 160.027 132.089 160.179C131.956 160.331 131.889 160.572 131.889 160.902C131.889 161.225 131.949 161.476 132.069 161.654C132.191 161.832 132.367 161.922 132.599 161.922ZM137.17 159.642V159.979H136.542V162.227H136.077V159.979H135.532V159.642H136.077V159.242C136.077 159.037 136.13 158.881 136.235 158.774C136.34 158.666 136.497 158.612 136.705 158.612H137.192L137.195 158.939H136.807C136.702 158.939 136.631 158.967 136.592 159.024C136.554 159.081 136.535 159.167 136.535 159.282V159.642H137.17ZM137.741 162.227V159.642H138.181V160.139C138.224 160.016 138.285 159.914 138.364 159.834C138.442 159.752 138.531 159.692 138.631 159.652C138.733 159.612 138.838 159.592 138.946 159.592C138.984 159.592 139.022 159.594 139.059 159.599C139.095 159.604 139.124 159.612 139.144 159.624V160.072C139.119 160.06 139.086 160.052 139.046 160.049C139.008 160.044 138.975 160.042 138.949 160.042C138.845 160.035 138.749 160.042 138.659 160.062C138.569 160.08 138.489 160.112 138.421 160.159C138.353 160.206 138.299 160.267 138.259 160.344C138.22 160.419 138.201 160.511 138.201 160.619V162.227H137.741ZM140.649 162.277C140.41 162.277 140.202 162.226 140.024 162.124C139.845 162.021 139.707 161.87 139.609 161.672C139.51 161.473 139.461 161.231 139.461 160.944C139.461 160.674 139.507 160.437 139.599 160.234C139.69 160.031 139.824 159.873 140.001 159.762C140.179 159.648 140.395 159.592 140.649 159.592C140.887 159.592 141.094 159.644 141.269 159.749C141.445 159.852 141.582 160.005 141.679 160.207C141.775 160.408 141.824 160.654 141.824 160.944C141.824 161.207 141.779 161.439 141.689 161.639C141.6 161.839 141.469 161.996 141.294 162.109C141.12 162.221 140.905 162.277 140.649 162.277ZM140.649 161.912C140.804 161.912 140.934 161.872 141.041 161.794C141.148 161.716 141.229 161.603 141.284 161.457C141.339 161.31 141.366 161.136 141.366 160.934C141.366 160.749 141.342 160.583 141.294 160.437C141.245 160.288 141.168 160.171 141.061 160.084C140.956 159.997 140.819 159.954 140.649 159.954C140.492 159.954 140.359 159.993 140.251 160.072C140.143 160.148 140.06 160.26 140.004 160.407C139.949 160.553 139.921 160.729 139.921 160.934C139.921 161.116 139.946 161.281 139.996 161.429C140.046 161.577 140.124 161.695 140.231 161.782C140.338 161.868 140.477 161.912 140.649 161.912ZM142.429 162.227V159.642H142.874V160.017C142.945 159.903 143.044 159.804 143.169 159.719C143.294 159.634 143.456 159.592 143.656 159.592C143.749 159.592 143.844 159.607 143.941 159.639C144.039 159.671 144.129 159.718 144.211 159.782C144.293 159.845 144.356 159.922 144.401 160.014C144.481 159.887 144.589 159.786 144.726 159.709C144.863 159.631 145.017 159.592 145.189 159.592C145.279 159.592 145.373 159.606 145.471 159.634C145.569 159.661 145.66 159.709 145.744 159.779C145.829 159.847 145.898 159.943 145.951 160.067C146.004 160.188 146.031 160.345 146.031 160.537V162.227H145.566V160.582C145.566 160.425 145.541 160.304 145.491 160.219C145.441 160.132 145.375 160.072 145.294 160.037C145.214 160.002 145.128 159.984 145.036 159.984C144.956 159.984 144.871 160 144.781 160.032C144.691 160.063 144.614 160.117 144.551 160.192C144.488 160.267 144.456 160.369 144.456 160.499V162.227H143.996V160.447C143.996 160.345 143.969 160.26 143.914 160.192C143.86 160.123 143.793 160.072 143.711 160.037C143.631 160.002 143.551 159.984 143.471 159.984C143.383 159.984 143.294 160.002 143.204 160.037C143.115 160.072 143.04 160.127 142.979 160.204C142.919 160.279 142.889 160.377 142.889 160.499V162.227H142.429ZM148.128 163.052C147.976 163.052 147.872 163.041 147.815 163.019C147.759 162.997 147.73 162.987 147.73 162.987V162.687L147.993 162.692C148.09 162.695 148.17 162.688 148.233 162.672C148.296 162.655 148.347 162.632 148.385 162.604C148.424 162.576 148.453 162.544 148.473 162.509C148.495 162.474 148.512 162.441 148.525 162.409L148.615 162.164L147.605 159.642H148.073L148.835 161.637L149.593 159.642H150.045L148.955 162.422C148.889 162.585 148.814 162.712 148.73 162.804C148.649 162.896 148.557 162.96 148.455 162.997C148.355 163.033 148.246 163.052 148.128 163.052ZM151.474 162.277C151.235 162.277 151.027 162.226 150.849 162.124C150.67 162.021 150.532 161.87 150.434 161.672C150.335 161.473 150.286 161.231 150.286 160.944C150.286 160.674 150.332 160.437 150.424 160.234C150.515 160.031 150.65 159.873 150.826 159.762C151.005 159.648 151.22 159.592 151.474 159.592C151.712 159.592 151.919 159.644 152.094 159.749C152.27 159.852 152.407 160.005 152.504 160.207C152.6 160.408 152.649 160.654 152.649 160.944C152.649 161.207 152.604 161.439 152.514 161.639C152.425 161.839 152.294 161.996 152.119 162.109C151.945 162.221 151.73 162.277 151.474 162.277ZM151.474 161.912C151.629 161.912 151.76 161.872 151.866 161.794C151.973 161.716 152.054 161.603 152.109 161.457C152.164 161.31 152.191 161.136 152.191 160.934C152.191 160.749 152.167 160.583 152.119 160.437C152.07 160.288 151.993 160.171 151.886 160.084C151.781 159.997 151.644 159.954 151.474 159.954C151.317 159.954 151.185 159.993 151.076 160.072C150.968 160.148 150.885 160.26 150.829 160.407C150.774 160.553 150.746 160.729 150.746 160.934C150.746 161.116 150.771 161.281 150.821 161.429C150.871 161.577 150.95 161.695 151.056 161.782C151.163 161.868 151.302 161.912 151.474 161.912ZM154.16 162.277C154.025 162.275 153.897 162.256 153.777 162.219C153.659 162.181 153.554 162.125 153.462 162.052C153.371 161.978 153.298 161.887 153.245 161.779C153.193 161.669 153.167 161.542 153.167 161.397V159.642H153.63V161.349C153.63 161.517 153.682 161.654 153.785 161.759C153.89 161.864 154.047 161.917 154.257 161.917C154.447 161.917 154.6 161.867 154.715 161.769C154.832 161.669 154.89 161.521 154.89 161.324V159.642H155.35V162.227H154.982L154.935 161.732C154.903 161.862 154.849 161.967 154.772 162.047C154.697 162.127 154.607 162.186 154.5 162.224C154.395 162.261 154.282 162.278 154.16 162.277ZM156.105 162.227V159.642H156.545V160.139C156.589 160.016 156.65 159.914 156.728 159.834C156.806 159.752 156.895 159.692 156.995 159.652C157.097 159.612 157.202 159.592 157.31 159.592C157.349 159.592 157.386 159.594 157.423 159.599C157.46 159.604 157.488 159.612 157.508 159.624V160.072C157.483 160.06 157.45 160.052 157.41 160.049C157.372 160.044 157.34 160.042 157.313 160.042C157.21 160.035 157.113 160.042 157.023 160.062C156.933 160.08 156.854 160.112 156.785 160.159C156.717 160.206 156.663 160.267 156.623 160.344C156.585 160.419 156.565 160.511 156.565 160.619V162.227H156.105ZM72.8556 169.277C72.6889 169.277 72.5414 169.247 72.4131 169.189C72.2847 169.129 72.1839 169.043 72.1106 168.932C72.0389 168.82 72.0031 168.685 72.0031 168.527C72.0031 168.24 72.1031 168.027 72.3031 167.887C72.5031 167.747 72.8239 167.672 73.2656 167.662L73.7281 167.649V167.447C73.7281 167.288 73.6806 167.163 73.5856 167.072C73.4906 166.978 73.3431 166.932 73.1431 166.932C72.9947 166.933 72.8639 166.968 72.7506 167.037C72.6389 167.105 72.5664 167.217 72.5331 167.372H72.1256C72.1356 167.203 72.1831 167.062 72.2681 166.947C72.3531 166.83 72.4714 166.742 72.6231 166.682C72.7764 166.622 72.9572 166.592 73.1656 166.592C73.3906 166.592 73.5772 166.623 73.7256 166.687C73.8756 166.75 73.9872 166.843 74.0606 166.967C74.1356 167.09 74.1731 167.242 74.1731 167.422V169.227H73.7781L73.7456 168.742C73.6456 168.943 73.5181 169.083 73.3631 169.162C73.2097 169.238 73.0406 169.277 72.8556 169.277ZM72.9956 168.944C73.0822 168.944 73.1681 168.928 73.2531 168.897C73.3397 168.865 73.4189 168.822 73.4906 168.769C73.5622 168.714 73.6189 168.653 73.6606 168.587C73.7039 168.518 73.7264 168.448 73.7281 168.377V167.934L73.3431 167.942C73.1464 167.945 72.9814 167.965 72.8481 168.002C72.7164 168.038 72.6172 168.096 72.5506 168.174C72.4856 168.252 72.4531 168.355 72.4531 168.482C72.4531 168.627 72.5031 168.74 72.6031 168.822C72.7047 168.903 72.8356 168.944 72.9956 168.944ZM75.9928 166.592C76.1778 166.592 76.3445 166.627 76.4928 166.699C76.6412 166.769 76.762 166.869 76.8553 166.999C76.9503 167.129 77.0095 167.282 77.0328 167.459H76.6228C76.6078 167.369 76.5728 167.287 76.5178 167.212C76.4645 167.137 76.3937 167.077 76.3053 167.032C76.217 166.987 76.1137 166.964 75.9953 166.964C75.7737 166.964 75.5937 167.044 75.4553 167.204C75.317 167.364 75.2478 167.609 75.2478 167.939C75.2478 168.237 75.3112 168.477 75.4378 168.657C75.5662 168.835 75.7545 168.924 76.0028 168.924C76.1212 168.924 76.2237 168.902 76.3103 168.857C76.3987 168.81 76.4695 168.749 76.5228 168.674C76.5762 168.597 76.6103 168.516 76.6253 168.429H77.0278C77.0062 168.602 76.9478 168.752 76.8528 168.879C76.7578 169.006 76.6362 169.104 76.4878 169.174C76.3412 169.242 76.1762 169.277 75.9928 169.277C75.7612 169.277 75.5553 169.226 75.3753 169.124C75.197 169.022 75.057 168.872 74.9553 168.674C74.8537 168.476 74.8028 168.232 74.8028 167.944C74.8028 167.674 74.8487 167.438 74.9403 167.237C75.0337 167.033 75.1687 166.875 75.3453 166.762C75.5237 166.648 75.7395 166.592 75.9928 166.592ZM78.6881 166.592C78.8731 166.592 79.0398 166.627 79.1881 166.699C79.3365 166.769 79.4573 166.869 79.5506 166.999C79.6456 167.129 79.7048 167.282 79.7281 167.459H79.3181C79.3031 167.369 79.2681 167.287 79.2131 167.212C79.1598 167.137 79.089 167.077 79.0006 167.032C78.9123 166.987 78.809 166.964 78.6906 166.964C78.469 166.964 78.289 167.044 78.1506 167.204C78.0123 167.364 77.9431 167.609 77.9431 167.939C77.9431 168.237 78.0065 168.477 78.1331 168.657C78.2615 168.835 78.4498 168.924 78.6981 168.924C78.8165 168.924 78.919 168.902 79.0056 168.857C79.094 168.81 79.1648 168.749 79.2181 168.674C79.2715 168.597 79.3056 168.516 79.3206 168.429H79.7231C79.7015 168.602 79.6431 168.752 79.5481 168.879C79.4531 169.006 79.3315 169.104 79.1831 169.174C79.0365 169.242 78.8715 169.277 78.6881 169.277C78.4565 169.277 78.2506 169.226 78.0706 169.124C77.8923 169.022 77.7523 168.872 77.6506 168.674C77.549 168.476 77.4981 168.232 77.4981 167.944C77.4981 167.674 77.544 167.438 77.6356 167.237C77.729 167.033 77.864 166.875 78.0406 166.762C78.219 166.648 78.4348 166.592 78.6881 166.592ZM81.3809 169.277C81.1426 169.277 80.9343 169.226 80.7559 169.124C80.5776 169.021 80.4393 168.87 80.3409 168.672C80.2426 168.473 80.1934 168.231 80.1934 167.944C80.1934 167.674 80.2393 167.437 80.3309 167.234C80.4226 167.031 80.5568 166.873 80.7334 166.762C80.9118 166.648 81.1276 166.592 81.3809 166.592C81.6193 166.592 81.8259 166.644 82.0009 166.749C82.1776 166.852 82.3143 167.005 82.4109 167.207C82.5076 167.408 82.5559 167.654 82.5559 167.944C82.5559 168.207 82.5109 168.439 82.4209 168.639C82.3326 168.839 82.2009 168.996 82.0259 169.109C81.8526 169.221 81.6376 169.277 81.3809 169.277ZM81.3809 168.912C81.5359 168.912 81.6668 168.872 81.7734 168.794C81.8801 168.716 81.9609 168.603 82.0159 168.457C82.0709 168.31 82.0984 168.136 82.0984 167.934C82.0984 167.749 82.0743 167.583 82.0259 167.437C81.9776 167.288 81.9001 167.171 81.7934 167.084C81.6884 166.997 81.5509 166.954 81.3809 166.954C81.2243 166.954 81.0918 166.993 80.9834 167.072C80.8751 167.148 80.7926 167.26 80.7359 167.407C80.6809 167.553 80.6534 167.729 80.6534 167.934C80.6534 168.116 80.6784 168.281 80.7284 168.429C80.7784 168.577 80.8568 168.695 80.9634 168.782C81.0701 168.868 81.2093 168.912 81.3809 168.912ZM84.0671 169.277C83.9321 169.275 83.8046 169.256 83.6846 169.219C83.5663 169.181 83.4613 169.125 83.3696 169.052C83.278 168.978 83.2055 168.887 83.1521 168.779C83.1005 168.669 83.0746 168.542 83.0746 168.397V166.642H83.5371V168.349C83.5371 168.517 83.5888 168.654 83.6921 168.759C83.7971 168.864 83.9546 168.917 84.1646 168.917C84.3546 168.917 84.5071 168.867 84.6221 168.769C84.7388 168.669 84.7971 168.521 84.7971 168.324V166.642H85.2571V169.227H84.8896L84.8421 168.732C84.8105 168.862 84.7563 168.967 84.6796 169.047C84.6046 169.127 84.5138 169.186 84.4071 169.224C84.3021 169.261 84.1888 169.278 84.0671 169.277ZM86.0126 169.227V166.642H86.4601V167.017C86.5018 166.945 86.5593 166.877 86.6326 166.814C86.7076 166.751 86.7976 166.7 86.9026 166.662C87.0093 166.623 87.1318 166.604 87.2701 166.604C87.4335 166.604 87.5835 166.637 87.7201 166.702C87.8585 166.767 87.9685 166.868 88.0501 167.007C88.1335 167.143 88.1751 167.32 88.1751 167.537V169.227H87.7126V167.582C87.7126 167.38 87.6593 167.231 87.5526 167.134C87.4476 167.036 87.311 166.987 87.1426 166.987C87.026 166.987 86.9168 167.006 86.8151 167.044C86.7135 167.081 86.631 167.137 86.5676 167.214C86.5043 167.289 86.4726 167.384 86.4726 167.499V169.227H86.0126ZM90.0896 166.979H89.5071V168.587C89.5071 168.678 89.5163 168.746 89.5346 168.789C89.5546 168.831 89.5871 168.857 89.6321 168.869C89.6788 168.881 89.7421 168.887 89.8221 168.887H90.1046V169.197C90.073 169.208 90.0246 169.218 89.9596 169.227C89.8963 169.235 89.8171 169.239 89.7221 169.239C89.5438 169.239 89.4055 169.215 89.3071 169.167C89.2088 169.118 89.1396 169.047 89.0996 168.952C89.0613 168.857 89.0421 168.74 89.0421 168.602V166.979H88.6221V166.642H89.0546L89.1671 165.889H89.5071V166.639H90.0896V166.979ZM92.4062 166.642V169.227H91.9587V166.642H92.4062ZM92.4162 165.614V166.094H91.9437V165.614H92.4162ZM94.1372 169.277C93.9572 169.277 93.7897 169.249 93.6347 169.194C93.4813 169.137 93.3538 169.05 93.2522 168.932C93.1505 168.812 93.0863 168.659 93.0597 168.474H93.4797C93.503 168.576 93.5447 168.661 93.6047 168.729C93.6663 168.796 93.743 168.847 93.8347 168.882C93.9263 168.915 94.0263 168.932 94.1347 168.932C94.308 168.932 94.448 168.899 94.5547 168.834C94.6613 168.769 94.7147 168.669 94.7147 168.534C94.7147 168.439 94.6863 168.363 94.6297 168.307C94.5747 168.248 94.4888 168.206 94.3722 168.179L93.8372 168.047C93.6288 167.997 93.4622 167.918 93.3372 167.812C93.2122 167.705 93.1497 167.556 93.1497 167.364C93.148 167.212 93.1838 167.079 93.2572 166.964C93.3305 166.849 93.4405 166.758 93.5872 166.692C93.7338 166.625 93.9163 166.592 94.1347 166.592C94.4147 166.592 94.6405 166.655 94.8122 166.782C94.9855 166.907 95.0755 167.091 95.0822 167.334H94.6747C94.658 167.211 94.6022 167.113 94.5072 167.042C94.4138 166.968 94.288 166.932 94.1297 166.932C93.9647 166.932 93.8305 166.965 93.7272 167.032C93.6238 167.097 93.5722 167.198 93.5722 167.337C93.5722 167.428 93.6088 167.501 93.6822 167.554C93.7555 167.606 93.8638 167.649 94.0072 167.684L94.5247 167.814C94.6447 167.846 94.743 167.887 94.8197 167.939C94.898 167.991 94.9597 168.048 95.0047 168.112C95.0513 168.175 95.0838 168.242 95.1022 168.312C95.1222 168.38 95.1322 168.446 95.1322 168.509C95.1322 168.667 95.0922 168.804 95.0122 168.919C94.9338 169.032 94.8205 169.121 94.6722 169.184C94.5255 169.246 94.3472 169.277 94.1372 169.277ZM99.7528 167.849C99.7528 168.141 99.7053 168.394 99.6103 168.609C99.5153 168.822 99.3612 168.987 99.1478 169.104C98.9362 169.219 98.6553 169.277 98.3053 169.277C97.9537 169.277 97.672 169.218 97.4603 169.102C97.2487 168.983 97.0953 168.816 97.0003 168.599C96.907 168.382 96.8603 168.124 96.8603 167.824V165.612H97.6028V167.879C97.6028 168.149 97.6678 168.347 97.7978 168.472C97.9278 168.595 98.097 168.657 98.3053 168.657C98.4437 168.657 98.5662 168.63 98.6728 168.577C98.7795 168.522 98.8628 168.437 98.9228 168.324C98.9845 168.209 99.0153 168.061 99.0153 167.879V165.612H99.7528V167.849ZM101.836 169.277C101.658 169.277 101.483 169.254 101.311 169.209C101.139 169.164 100.983 169.097 100.841 169.007C100.699 168.917 100.582 168.804 100.488 168.669C100.397 168.534 100.342 168.376 100.323 168.194H101.071C101.096 168.304 101.143 168.397 101.213 168.472C101.283 168.547 101.372 168.604 101.478 168.644C101.585 168.684 101.703 168.704 101.833 168.704C101.967 168.704 102.088 168.687 102.198 168.654C102.308 168.621 102.397 168.571 102.463 168.504C102.53 168.436 102.563 168.351 102.563 168.249C102.563 168.157 102.536 168.082 102.481 168.024C102.428 167.966 102.355 167.918 102.263 167.882C102.172 167.845 102.068 167.815 101.951 167.792L101.326 167.664C101.053 167.612 100.836 167.504 100.676 167.339C100.516 167.172 100.433 166.951 100.428 166.674C100.427 166.447 100.487 166.252 100.608 166.087C100.732 165.92 100.898 165.792 101.108 165.702C101.32 165.612 101.557 165.567 101.818 165.567C102.13 165.567 102.392 165.616 102.603 165.714C102.817 165.811 102.978 165.942 103.088 166.109C103.2 166.274 103.258 166.458 103.261 166.662H102.528C102.515 166.535 102.477 166.434 102.413 166.359C102.35 166.284 102.268 166.23 102.168 166.197C102.07 166.163 101.958 166.147 101.831 166.147C101.734 166.147 101.646 166.157 101.566 166.179C101.488 166.201 101.421 166.232 101.366 166.272C101.311 166.31 101.268 166.356 101.238 166.409C101.208 166.462 101.193 166.522 101.193 166.589C101.193 166.694 101.228 166.779 101.298 166.844C101.368 166.909 101.499 166.962 101.691 167.004L102.311 167.132C102.533 167.175 102.708 167.239 102.838 167.324C102.97 167.409 103.068 167.505 103.133 167.612C103.2 167.718 103.243 167.827 103.263 167.939C103.285 168.049 103.296 168.151 103.296 168.244C103.296 168.439 103.234 168.615 103.111 168.772C102.989 168.927 102.819 169.05 102.601 169.142C102.383 169.232 102.128 169.277 101.836 169.277ZM106.367 169.277C105.934 169.277 105.582 169.19 105.312 169.017C105.042 168.842 104.887 168.572 104.847 168.209L105.607 168.194C105.647 168.359 105.733 168.485 105.865 168.572C105.998 168.657 106.165 168.699 106.365 168.699C106.485 168.699 106.591 168.68 106.682 168.642C106.776 168.602 106.849 168.548 106.902 168.482C106.956 168.413 106.982 168.336 106.982 168.249C106.982 168.116 106.94 168.017 106.855 167.952C106.77 167.885 106.639 167.832 106.462 167.792L105.87 167.664C105.595 167.609 105.374 167.5 105.207 167.337C105.042 167.172 104.958 166.951 104.955 166.674C104.953 166.447 105.014 166.252 105.137 166.087C105.262 165.92 105.432 165.792 105.645 165.702C105.86 165.612 106.101 165.567 106.367 165.567C106.641 165.567 106.877 165.616 107.075 165.714C107.275 165.811 107.428 165.942 107.535 166.107C107.643 166.27 107.696 166.451 107.692 166.649L106.955 166.662C106.932 166.502 106.878 166.376 106.795 166.284C106.712 166.192 106.573 166.147 106.38 166.147C106.28 166.147 106.191 166.157 106.112 166.179C106.034 166.201 105.967 166.232 105.91 166.272C105.853 166.31 105.81 166.356 105.78 166.409C105.752 166.462 105.737 166.522 105.737 166.589C105.737 166.694 105.772 166.777 105.842 166.839C105.914 166.899 106.048 166.955 106.245 167.007L106.827 167.149C107.156 167.227 107.392 167.362 107.537 167.552C107.684 167.742 107.757 167.972 107.757 168.244C107.757 168.452 107.7 168.634 107.585 168.789C107.472 168.944 107.311 169.064 107.102 169.149C106.894 169.234 106.649 169.277 106.367 169.277ZM106.055 165.094H106.687V165.744H106.055V165.094ZM106.042 169.054H106.672V169.704H106.042V169.054ZM108.863 169.227V166.519H108.218V166.107C108.425 166.107 108.592 166.087 108.718 166.049C108.847 166.009 108.942 165.952 109.006 165.879C109.069 165.804 109.107 165.715 109.118 165.612H109.603V169.227H108.863ZM111.757 165.562C112.187 165.562 112.526 165.722 112.774 166.044C113.023 166.364 113.147 166.825 113.147 167.427C113.147 168.025 113.024 168.484 112.779 168.804C112.534 169.122 112.194 169.282 111.757 169.282C111.319 169.282 110.976 169.122 110.729 168.804C110.484 168.486 110.362 168.027 110.362 167.429C110.362 167.029 110.419 166.69 110.532 166.412C110.645 166.133 110.806 165.922 111.014 165.779C111.223 165.634 111.47 165.562 111.757 165.562ZM111.757 168.684C111.972 168.684 112.129 168.588 112.229 168.397C112.329 168.203 112.379 167.881 112.379 167.429C112.379 166.967 112.329 166.637 112.227 166.437C112.125 166.237 111.968 166.137 111.754 166.137C111.541 166.137 111.382 166.237 111.277 166.439C111.174 166.641 111.122 166.971 111.122 167.429C111.122 167.879 111.174 168.201 111.277 168.394C111.38 168.587 111.54 168.684 111.757 168.684ZM115.207 165.612H115.925V167.814H116.482V168.427H115.925V169.227H115.222L115.225 168.427H113.56V167.827L115.207 165.612ZM114.235 167.814H115.225V166.489L114.235 167.814ZM116.874 169.227V168.432H117.674V169.227H116.874ZM119.521 169.282C119.296 169.282 119.086 169.238 118.891 169.152C118.696 169.065 118.537 168.943 118.414 168.787C118.291 168.628 118.221 168.443 118.206 168.232H118.901C118.931 168.372 118.998 168.486 119.101 168.574C119.205 168.661 119.335 168.704 119.491 168.704C119.665 168.704 119.816 168.663 119.946 168.582C120.078 168.5 120.176 168.37 120.241 168.192C120.308 168.013 120.331 167.78 120.311 167.492C120.265 167.58 120.2 167.657 120.116 167.724C120.035 167.789 119.939 167.84 119.829 167.877C119.719 167.912 119.596 167.929 119.461 167.929C119.216 167.929 118.999 167.883 118.809 167.792C118.621 167.698 118.472 167.567 118.364 167.397C118.257 167.225 118.204 167.022 118.204 166.787C118.204 166.55 118.261 166.339 118.374 166.154C118.487 165.969 118.646 165.824 118.849 165.719C119.052 165.614 119.291 165.562 119.564 165.562C119.871 165.562 120.135 165.635 120.356 165.782C120.58 165.927 120.751 166.133 120.869 166.402C120.989 166.668 121.049 166.982 121.049 167.344C121.049 167.776 120.987 168.136 120.864 168.424C120.742 168.711 120.567 168.926 120.339 169.069C120.111 169.211 119.838 169.282 119.521 169.282ZM119.586 167.349C119.688 167.349 119.786 167.327 119.881 167.282C119.978 167.235 120.057 167.177 120.119 167.107C120.181 167.037 120.211 166.964 120.211 166.889C120.213 166.727 120.187 166.589 120.134 166.474C120.082 166.357 120.009 166.268 119.914 166.207C119.821 166.145 119.711 166.114 119.586 166.114C119.471 166.114 119.369 166.141 119.279 166.194C119.189 166.247 119.118 166.322 119.066 166.419C119.015 166.516 118.989 166.627 118.989 166.754C118.989 166.942 119.044 167.089 119.154 167.194C119.264 167.297 119.408 167.349 119.586 167.349ZM122.87 165.562C123.3 165.562 123.639 165.722 123.888 166.044C124.136 166.364 124.26 166.825 124.26 167.427C124.26 168.025 124.138 168.484 123.893 168.804C123.648 169.122 123.307 169.282 122.87 169.282C122.432 169.282 122.089 169.122 121.843 168.804C121.598 168.486 121.475 168.027 121.475 167.429C121.475 167.029 121.532 166.69 121.645 166.412C121.758 166.133 121.919 165.922 122.128 165.779C122.336 165.634 122.583 165.562 122.87 165.562ZM122.87 168.684C123.085 168.684 123.243 168.588 123.343 168.397C123.443 168.203 123.493 167.881 123.493 167.429C123.493 166.967 123.442 166.637 123.34 166.437C123.238 166.237 123.081 166.137 122.868 166.137C122.654 166.137 122.495 166.237 122.39 166.439C122.287 166.641 122.235 166.971 122.235 167.429C122.235 167.879 122.287 168.201 122.39 168.394C122.493 168.587 122.653 168.684 122.87 168.684ZM124.753 169.227V168.637H125.303V169.227H124.753Z" fill="#36536B"/>
<path fill-rule="evenodd" clip-rule="evenodd" d="M73.667 146.954V145.467L74.8784 143.418H74.1101L73.3178 144.851L72.5158 143.418H71.7548L72.9638 145.465V146.954H73.667ZM76.2945 147.003C76.5482 147.003 76.7645 146.948 76.9435 146.837C77.1226 146.726 77.2598 146.573 77.3554 146.378C77.4509 146.184 77.4987 145.959 77.4987 145.705C77.4987 145.434 77.4497 145.199 77.3518 145C77.2538 144.801 77.1149 144.648 76.9351 144.539C76.7553 144.431 76.5426 144.377 76.2969 144.377C76.0513 144.377 75.8381 144.432 75.6575 144.543C75.4769 144.654 75.3372 144.809 75.2384 145.008C75.1397 145.207 75.0903 145.439 75.0903 145.705C75.0903 145.97 75.1397 146.2 75.2384 146.394C75.3372 146.588 75.4769 146.738 75.6575 146.844C75.8381 146.95 76.0505 147.003 76.2945 147.003ZM75.9862 146.358C76.0617 146.434 76.1653 146.473 76.2969 146.473C76.4205 146.473 76.5201 146.436 76.5955 146.362C76.671 146.289 76.726 146.192 76.7605 146.073C76.795 145.953 76.8123 145.822 76.8123 145.68C76.8123 145.546 76.7966 145.42 76.7653 145.301C76.734 145.182 76.6806 145.086 76.6052 145.012C76.5297 144.939 76.427 144.902 76.2969 144.902C76.1733 144.902 76.0733 144.937 75.9971 145.006C75.9208 145.076 75.865 145.169 75.8297 145.288C75.7944 145.406 75.7767 145.537 75.7767 145.68C75.7767 145.812 75.7928 145.939 75.8249 146.06C75.857 146.182 75.9108 146.281 75.9862 146.358ZM78.8835 147.003C78.9814 147.003 79.0814 146.988 79.1833 146.958C79.2853 146.928 79.376 146.873 79.4555 146.794C79.5349 146.715 79.5891 146.601 79.618 146.453L79.6999 146.954H80.2297V144.426H79.5337V146.071C79.5337 146.202 79.4932 146.303 79.4121 146.376C79.331 146.448 79.2214 146.485 79.0834 146.485C78.9373 146.485 78.8265 146.447 78.751 146.372C78.6756 146.297 78.6378 146.201 78.6378 146.084V144.426H77.9346V146.174C77.9346 146.309 77.9623 146.428 78.0177 146.531C78.0731 146.634 78.1465 146.72 78.238 146.79C78.3296 146.861 78.4311 146.914 78.5427 146.949C78.6543 146.985 78.7679 147.003 78.8835 147.003ZM81.5038 145.57V146.954H80.8005V144.426H81.4773V145.025C81.5174 144.896 81.574 144.783 81.6471 144.686C81.7201 144.589 81.8088 144.513 81.9132 144.459C82.0175 144.404 82.1355 144.377 82.2672 144.377C82.2897 144.377 82.311 144.378 82.331 144.38C82.3511 144.383 82.3659 144.386 82.3756 144.391V145.071C82.3611 145.065 82.3439 145.061 82.3238 145.059C82.3037 145.057 82.2857 145.056 82.2696 145.054C82.1315 145.043 82.0135 145.047 81.9156 145.066C81.8176 145.086 81.7382 145.119 81.6772 145.167C81.6161 145.214 81.572 145.272 81.5447 145.34C81.5174 145.409 81.5038 145.485 81.5038 145.57ZM84.3167 146.954L84.6081 146.135H85.8605L86.1446 146.954H86.8455L85.6004 143.418H84.8586L83.6111 146.954H84.3167ZM84.7647 145.511H85.6919L85.2319 144.108L84.7647 145.511ZM87.9822 147.742V146.575C88.0175 146.636 88.0589 146.691 88.1062 146.743C88.1536 146.794 88.2074 146.839 88.2676 146.878C88.3278 146.918 88.3932 146.948 88.4639 146.97C88.5345 146.992 88.61 147.003 88.6903 147.003C88.8862 147.003 89.062 146.956 89.2177 146.861C89.3734 146.767 89.4959 146.621 89.585 146.425C89.6741 146.228 89.7186 145.977 89.7186 145.67C89.7186 145.375 89.6773 145.132 89.5946 144.94C89.5119 144.749 89.3983 144.607 89.2538 144.515C89.1093 144.423 88.9448 144.377 88.7601 144.377C88.675 144.377 88.5939 144.387 88.5169 144.407C88.4398 144.428 88.3684 144.457 88.3025 144.494C88.2367 144.532 88.1769 144.575 88.1231 144.625C88.0693 144.675 88.024 144.73 87.987 144.79L87.9846 144.426H87.279V147.742H87.9822ZM88.2194 146.367C88.2989 146.442 88.3997 146.48 88.5217 146.48C88.6742 146.48 88.8023 146.415 88.9058 146.287C89.0094 146.158 89.0612 145.954 89.0612 145.675C89.0612 145.431 89.0118 145.24 88.913 145.102C88.8143 144.964 88.6838 144.895 88.5217 144.895C88.3403 144.895 88.205 144.97 88.1159 145.119C88.0268 145.268 87.9822 145.454 87.9822 145.675C87.9822 145.817 88.0019 145.949 88.0412 146.071C88.0806 146.194 88.14 146.292 88.2194 146.367ZM90.8891 147.742V146.575C90.9244 146.636 90.9658 146.691 91.0131 146.743C91.0605 146.794 91.1143 146.839 91.1745 146.878C91.2347 146.918 91.3001 146.948 91.3708 146.97C91.4414 146.992 91.5169 147.003 91.5972 147.003C91.793 147.003 91.9688 146.956 92.1246 146.861C92.2803 146.767 92.4027 146.621 92.4919 146.425C92.581 146.228 92.6255 145.977 92.6255 145.67C92.6255 145.375 92.5842 145.132 92.5015 144.94C92.4188 144.749 92.3052 144.607 92.1607 144.515C92.0162 144.423 91.8516 144.377 91.667 144.377C91.5819 144.377 91.5008 144.387 91.4237 144.407C91.3467 144.428 91.2752 144.457 91.2094 144.494C91.1436 144.532 91.0838 144.575 91.03 144.625C90.9762 144.675 90.9308 144.73 90.8939 144.79L90.8915 144.426H90.1859V147.742H90.8891ZM91.1263 146.367C91.2058 146.442 91.3065 146.48 91.4286 146.48C91.5811 146.48 91.7091 146.415 91.8127 146.287C91.9163 146.158 91.968 145.954 91.968 145.675C91.968 145.431 91.9187 145.24 91.8199 145.102C91.7212 144.964 91.5907 144.895 91.4286 144.895C91.2471 144.895 91.1119 144.97 91.0228 145.119C90.9336 145.268 90.8891 145.454 90.8891 145.675C90.8891 145.817 90.9088 145.949 90.9481 146.071C90.9874 146.194 91.0468 146.292 91.1263 146.367Z" fill="#BA4270"/>
<path opacity="0.5" fill-rule="evenodd" clip-rule="evenodd" d="M142.311 146.9C142.204 146.969 142.053 147.003 141.857 147.003C141.733 147.003 141.617 146.989 141.509 146.959C141.401 146.93 141.329 146.908 141.293 146.893L141.325 146.46C141.374 146.478 141.432 146.501 141.497 146.528C141.562 146.554 141.643 146.568 141.739 146.568C141.896 146.568 142.004 146.524 142.063 146.436C142.121 146.348 142.151 146.199 142.151 145.991V143.418H142.596V146.12C142.596 146.308 142.575 146.468 142.534 146.6C142.492 146.732 142.418 146.832 142.311 146.9ZM144.577 146.951C144.475 146.987 144.366 147.005 144.248 147.003C144.118 147.002 143.996 146.982 143.881 146.946C143.766 146.909 143.665 146.855 143.576 146.783C143.488 146.711 143.419 146.622 143.368 146.515C143.318 146.409 143.292 146.284 143.292 146.142V144.426H143.738V146.096C143.738 146.261 143.788 146.394 143.888 146.497C143.989 146.6 144.14 146.651 144.342 146.651C144.525 146.651 144.673 146.603 144.784 146.506C144.896 146.409 144.952 146.264 144.952 146.071V144.426H145.395V146.954H145.041L144.995 146.47C144.964 146.597 144.913 146.7 144.84 146.778C144.767 146.856 144.679 146.914 144.577 146.951ZM146.975 147.003C147.177 147.003 147.349 146.973 147.491 146.911C147.633 146.85 147.742 146.764 147.819 146.652C147.895 146.541 147.933 146.407 147.933 146.252C147.933 146.19 147.924 146.126 147.905 146.058C147.887 145.99 147.856 145.926 147.812 145.864C147.767 145.802 147.708 145.745 147.633 145.695C147.559 145.644 147.464 145.604 147.348 145.573L146.849 145.445C146.711 145.411 146.607 145.368 146.536 145.317C146.466 145.266 146.43 145.195 146.43 145.105C146.43 144.97 146.48 144.87 146.58 144.806C146.679 144.741 146.808 144.709 146.967 144.709C147.12 144.709 147.242 144.745 147.332 144.816C147.423 144.887 147.476 144.982 147.492 145.103H147.885C147.879 144.865 147.792 144.684 147.626 144.561C147.46 144.438 147.242 144.377 146.972 144.377C146.762 144.377 146.586 144.409 146.445 144.474C146.304 144.54 146.198 144.629 146.127 144.741C146.056 144.854 146.022 144.984 146.023 145.132C146.023 145.32 146.084 145.466 146.204 145.57C146.324 145.674 146.485 145.751 146.686 145.8L147.201 145.93C147.313 145.956 147.396 145.997 147.45 146.053C147.504 146.109 147.531 146.184 147.531 146.277C147.531 146.409 147.48 146.507 147.377 146.57C147.274 146.634 147.139 146.666 146.972 146.666C146.868 146.666 146.772 146.649 146.683 146.616C146.595 146.582 146.521 146.532 146.463 146.466C146.404 146.4 146.364 146.318 146.341 146.218H145.937C145.962 146.399 146.024 146.548 146.122 146.664C146.22 146.781 146.343 146.867 146.492 146.921C146.64 146.976 146.801 147.003 146.975 147.003ZM149.729 146.954C149.667 146.962 149.59 146.967 149.499 146.967C149.327 146.967 149.194 146.943 149.099 146.896C149.004 146.848 148.938 146.778 148.9 146.685C148.862 146.592 148.844 146.478 148.844 146.343V144.756H148.439V144.426H148.856L148.964 143.689H149.291V144.423H149.853V144.756H149.291V146.328C149.291 146.418 149.301 146.484 149.319 146.525C149.338 146.567 149.369 146.593 149.413 146.605C149.457 146.616 149.518 146.622 149.595 146.622H149.867V146.925C149.837 146.936 149.79 146.946 149.729 146.954ZM152.141 146.954V144.166L154.009 146.954H154.407V143.418H153.961V146.167L152.121 143.418H151.695V146.954H152.141ZM156.848 146.838C156.68 146.948 156.472 147.003 156.225 147.003C155.996 147.003 155.795 146.953 155.623 146.853C155.451 146.753 155.318 146.605 155.223 146.411C155.128 146.217 155.081 145.98 155.081 145.7C155.081 145.436 155.125 145.204 155.214 145.005C155.302 144.806 155.432 144.652 155.603 144.542C155.774 144.432 155.981 144.377 156.225 144.377C156.455 144.377 156.654 144.428 156.824 144.529C156.993 144.631 157.124 144.781 157.217 144.978C157.31 145.176 157.357 145.416 157.357 145.7C157.357 145.957 157.314 146.184 157.228 146.38C157.142 146.575 157.015 146.728 156.848 146.838ZM156.225 146.646C156.06 146.646 155.926 146.604 155.823 146.519C155.72 146.434 155.645 146.319 155.597 146.174C155.548 146.029 155.524 145.868 155.524 145.69C155.524 145.489 155.551 145.317 155.605 145.174C155.659 145.03 155.738 144.921 155.842 144.845C155.947 144.769 156.074 144.731 156.225 144.731C156.389 144.731 156.522 144.774 156.624 144.858C156.726 144.943 156.8 145.058 156.846 145.202C156.893 145.346 156.916 145.509 156.916 145.69C156.916 145.887 156.89 146.058 156.837 146.201C156.784 146.345 156.706 146.455 156.603 146.531C156.5 146.608 156.374 146.646 156.225 146.646ZM159.457 145.088L158.918 146.954H158.482L157.713 144.426H158.125L158.696 146.37H158.735L159.296 144.426H159.633L160.216 146.365H160.254L160.801 144.426H161.218L160.464 146.954H160.025L159.457 145.088Z" fill="#36536B"/>
</g>
<defs>
<filter id="filter0_d_0_892" x="0" y="0" width="284.612" height="399.453" filterUnits="userSpaceOnUse" color-interpolation-filters="sRGB">
<feFlood flood-opacity="0" result="BackgroundImageFix"/>
<feColorMatrix in="SourceAlpha" type="matrix" values="0 0 0 0 0 0 0 0 0 0 0 0 0 0 0 0 0 0 127 0" result="hardAlpha"/>
<feOffset dx="25" dy="25"/>
<feGaussianBlur stdDeviation="40"/>
<feColorMatrix type="matrix" values="0 0 0 0 0.212302 0 0 0 0 0.32521 0 0 0 0 0.419299 0 0 0 0.300727 0"/>
<feBlend mode="normal" in2="BackgroundImageFix" result="effect1_dropShadow_0_892"/>
<feBlend mode="normal" in="SourceGraphic" in2="effect1_dropShadow_0_892" result="shape"/>
</filter>
<filter id="filter1_d_0_892" x="59.0023" y="129.727" width="135.004" height="72.5532" filterUnits="userSpaceOnUse" color-interpolation-filters="sRGB">
<feFlood flood-opacity="0" result="BackgroundImageFix"/>
<feColorMatrix in="SourceAlpha" type="matrix" values="0 0 0 0 0 0 0 0 0 0 0 0 0 0 0 0 0 0 127 0" result="hardAlpha"/>
<feMorphology radius="10" operator="erode" in="SourceAlpha" result="effect1_dropShadow_0_892"/>
<feOffset dx="10" dy="10"/>
<feGaussianBlur stdDeviation="12.5"/>
<feColorMatrix type="matrix" values="0 0 0 0 0.212302 0 0 0 0 0.32521 0 0 0 0 0.419299 0 0 0 0.25 0"/>
<feBlend mode="normal" in2="BackgroundImageFix" result="effect1_dropShadow_0_892"/>
<feBlend mode="normal" in="SourceGraphic" in2="effect1_dropShadow_0_892" result="shape"/>
</filter>
<linearGradient id="paint0_linear_0_892" x1="58.6017" y1="54.7266" x2="58.6017" y2="60.6421" gradientUnits="userSpaceOnUse">
<stop stop-color="#454545"/>
<stop offset="0.226279" stop-color="#999999"/>
<stop offset="1" stop-color="white"/>
</linearGradient>
<linearGradient id="paint1_linear_0_892" x1="179.557" y1="95.8854" x2="174.981" y2="95.8854" gradientUnits="userSpaceOnUse">
<stop stop-color="white" stop-opacity="0.01"/>
<stop offset="0.222178" stop-color="#BABABA"/>
<stop offset="0.54678" stop-color="white" stop-opacity="0.01"/>
<stop offset="1" stop-color="white" stop-opacity="0.01"/>
</linearGradient>
<linearGradient id="paint2_linear_0_892" x1="55" y1="95.7603" x2="59.5831" y2="95.7603" gradientUnits="userSpaceOnUse">
<stop stop-color="white" stop-opacity="0.01"/>
<stop offset="0.222178" stop-color="#BABABA"/>
<stop offset="0.54678" stop-color="white" stop-opacity="0.01"/>
<stop offset="1" stop-color="white" stop-opacity="0.01"/>
</linearGradient>
<linearGradient id="paint3_linear_0_892" x1="61.1979" y1="60.7266" x2="61.1979" y2="281.99" gradientUnits="userSpaceOnUse">
<stop stop-color="#9CB6CD"/>
<stop offset="0.420564" stop-color="#9AB3CA"/>
<stop offset="0.716592" stop-color="#557496"/>
<stop offset="1" stop-color="#475178"/>
</linearGradient>
<clipPath id="clip0_0_892">
<rect width="105" height="43" fill="white" transform="translate(64.0023 134.727)"/>
</clipPath>
</defs>
</svg>
