<svg width="229" height="450" viewBox="0 0 229 450" fill="none" xmlns="http://www.w3.org/2000/svg">
<g id="Group 38">
<g id="Group 2 Copy 3">
<g id="iPhone-X-Mockup">
<g id="phone">
<g id="body" filter="url(#filter0_d_0_1395)">
<path fill-rule="evenodd" clip-rule="evenodd" d="M74.1925 55H184.715C195.315 55 203.908 63.2565 203.908 73.4414V325.898C203.908 336.083 195.315 344.339 184.715 344.339H74.1925C63.5928 344.339 55 336.083 55 325.898V73.4414C55 63.2565 63.5928 55 74.1925 55Z" fill="#213648"/>
</g>
<g id="frame">
<path id="reflect-frame-top" opacity="0.595562" fill-rule="evenodd" clip-rule="evenodd" d="M185.142 54.6699H73.6993C68.4963 54.9883 63.6978 57.3709 59.3038 61.8178C62.1297 59.3423 67.1698 56.0298 73.8334 56.0298C73.8334 56.0298 180.566 56.0298 185.008 56.0298C191.672 56.0298 196.712 59.3423 199.538 61.8178C195.144 57.3709 190.345 54.9883 185.142 54.6699Z" fill="url(#paint0_linear_0_1395)" fill-opacity="0.65"/>
<path id="reflect-frame-right" opacity="0.75" fill-rule="evenodd" clip-rule="evenodd" d="M200.892 323.019V74.9598C200.892 68.3042 198.455 65.8437 197 64.2639C195.546 62.684 195.485 61.8782 197.574 63.071C199.663 64.2639 203.842 67.7381 203.842 74.9598V323.019C203.842 330.241 199.663 333.715 197.574 334.908C195.485 336.101 195.546 335.295 197 333.715C198.455 332.135 200.892 329.675 200.892 323.019Z" fill="url(#paint1_linear_0_1395)"/>
<path id="reflect-frame-left" opacity="0.75" fill-rule="evenodd" clip-rule="evenodd" d="M57.9498 323.019V74.9598C57.9498 68.3042 60.3873 65.8437 61.8413 64.2639C63.2954 62.684 63.3573 61.8782 61.268 63.071C59.1788 64.2639 55 67.7381 55 74.9598V323.019C55 330.241 59.1788 333.715 61.268 334.908C63.3573 336.101 63.2954 335.295 61.8413 333.715C60.3873 332.135 57.9498 329.675 57.9498 323.019Z" fill="url(#paint2_linear_0_1395)"/>
</g>
<g id="controls">
<path id="vol+" fill-rule="evenodd" clip-rule="evenodd" d="M53.5159 115.008C53.5159 114.216 54.1582 113.573 54.9505 113.573C55.7428 113.573 56.3851 114.216 56.3851 115.008V149.462C56.3851 150.254 55.7428 150.897 54.9505 150.897C54.1582 150.897 53.5159 150.254 53.5159 149.462V115.008Z" fill="#2E423C"/>
<path id="power" fill-rule="evenodd" clip-rule="evenodd" d="M202.358 145.45C202.358 144.658 203 144.016 203.792 144.016C204.585 144.016 205.227 144.658 205.227 145.45V169.812C205.227 170.604 204.585 171.247 203.792 171.247C203 171.247 202.358 170.604 202.358 169.812V145.45Z" fill="#2E423C"/>
</g>
</g>
<g id="Screen">
<path id="Screen Mask" fill-rule="evenodd" clip-rule="evenodd" d="M116.325 61.8877L73.3221 61.8877C66.9043 61.8877 62.228 66.2744 62.228 72.0037V316.99C62.228 324.46 69.4537 331.079 77.624 331.079H181.269C189.139 331.079 196.665 324.409 196.665 316.99V72.6659C196.665 65.7989 191.585 61.9285 185.571 61.8877L141.886 61.8877C141.721 61.9149 138.72 63.1531 137.452 66.2744C136.183 69.3957 133.631 71.8839 130.837 71.8839H127.592C126.264 71.8839 122.768 70.5907 120.997 66.2744C119.227 61.9581 116.49 61.9149 116.325 61.8877Z" fill="#36536B"/>
<mask id="mask0_0_1395" style="mask-type:luminance" maskUnits="userSpaceOnUse" x="62" y="61" width="135" height="271">
<path id="Screen Mask_2" fill-rule="evenodd" clip-rule="evenodd" d="M116.325 61.8877L73.3221 61.8877C66.9043 61.8877 62.228 66.2744 62.228 72.0037V316.99C62.228 324.46 69.4537 331.079 77.624 331.079H181.269C189.139 331.079 196.665 324.409 196.665 316.99V72.6659C196.665 65.7989 191.585 61.9285 185.571 61.8877L141.886 61.8877C141.721 61.9149 138.72 63.1531 137.452 66.2744C136.183 69.3957 133.631 71.8839 130.837 71.8839H127.592C126.264 71.8839 122.768 70.5907 120.997 66.2744C119.227 61.9581 116.49 61.9149 116.325 61.8877Z" fill="white"/>
</mask>
<g mask="url(#mask0_0_1395)">
</g>
</g>
</g>
</g>
<g id="Group 39">
<g id="Group 33">
<g id="Group 34">
<g id="Rectangle" filter="url(#filter1_d_0_1395)">
<rect x="78.3676" y="137.03" width="101.719" height="110.78" rx="2" fill="#FBFCFE"/>
</g>
<g id="Group 32">
<path id="Paymentof$9204iscompletedandprocessedsuccessfully" fill-rule="evenodd" clip-rule="evenodd" d="M140.865 205.517L140.865 206.19H139.918L139.918 205.518L139.901 205.516C139.476 205.464 139.117 205.343 138.821 205.152C138.416 204.889 138.183 204.484 138.123 203.936L139.265 203.913C139.325 204.162 139.454 204.351 139.654 204.48C139.853 204.61 140.102 204.675 140.403 204.675C140.583 204.675 140.743 204.645 140.882 204.586C141.021 204.527 141.131 204.447 141.211 204.345C141.291 204.243 141.331 204.127 141.331 203.996C141.331 203.795 141.267 203.645 141.139 203.546C141.012 203.446 140.815 203.366 140.55 203.306L139.659 203.114C139.246 203.031 138.915 202.866 138.666 202.618C138.416 202.371 138.289 202.038 138.284 201.621C138.282 201.279 138.374 200.983 138.56 200.733C138.747 200.483 139.001 200.29 139.323 200.154L139.463 200.1C139.606 200.051 139.756 200.013 139.913 199.988L139.937 199.986L139.937 199.238H140.888L140.888 199.99L140.981 200.006C141.159 200.043 141.322 200.098 141.472 200.171C141.771 200.318 142.001 200.516 142.163 200.763C142.325 201.011 142.403 201.284 142.398 201.583L141.29 201.602C141.255 201.361 141.174 201.171 141.049 201.033C140.924 200.895 140.716 200.825 140.426 200.825C140.275 200.825 140.141 200.842 140.024 200.874C139.906 200.907 139.804 200.953 139.719 201.012C139.634 201.071 139.57 201.141 139.526 201.221C139.482 201.302 139.46 201.392 139.46 201.493C139.46 201.651 139.513 201.776 139.62 201.868C139.726 201.96 139.927 202.044 140.223 202.122L141.098 202.337C141.591 202.455 141.948 202.658 142.167 202.944C142.386 203.231 142.495 203.579 142.495 203.988C142.495 204.303 142.41 204.577 142.238 204.81C142.067 205.044 141.824 205.225 141.511 205.353L141.374 205.404C141.233 205.451 141.082 205.487 140.921 205.51L140.865 205.517ZM98.4965 203.472V205.47H97.6776V200.019H99.5596C99.9478 200.019 100.295 200.085 100.602 200.218C100.909 200.352 101.151 200.548 101.327 200.807C101.504 201.065 101.592 201.383 101.592 201.76C101.592 202.122 101.511 202.431 101.35 202.686C101.188 202.941 100.963 203.136 100.673 203.27C100.384 203.405 100.049 203.472 99.6686 203.472H98.4965ZM98.4928 202.812H99.646C99.9917 202.812 100.273 202.712 100.491 202.513C100.709 202.313 100.818 202.047 100.818 201.715C100.818 201.378 100.705 201.12 100.48 200.94C100.255 200.761 99.9666 200.671 99.616 200.671H98.4928V202.812ZM103.302 205.545C103.58 205.545 103.83 205.488 104.052 205.374C104.274 205.26 104.457 205.053 104.602 204.754L104.666 205.47H105.346V202.744C105.346 202.478 105.29 202.252 105.179 202.066C105.067 201.88 104.898 201.738 104.67 201.642C104.442 201.545 104.151 201.497 103.798 201.497C103.48 201.497 103.203 201.542 102.968 201.632C102.733 201.723 102.548 201.857 102.414 202.034C102.28 202.211 102.205 202.429 102.19 202.688H102.889C102.939 202.469 103.045 202.312 103.207 202.217C103.368 202.121 103.553 202.073 103.761 202.073C104.036 202.071 104.24 202.134 104.373 202.262C104.506 202.39 104.572 202.566 104.572 202.79V203.072L103.934 203.091C103.265 203.104 102.778 203.217 102.472 203.431C102.167 203.644 102.014 203.967 102.014 204.399C102.014 204.641 102.069 204.847 102.179 205.018C102.289 205.189 102.442 205.319 102.636 205.41C102.83 205.5 103.052 205.545 103.302 205.545ZM103.006 204.808C103.151 204.925 103.334 204.984 103.554 204.984C103.677 204.984 103.798 204.962 103.919 204.918C104.039 204.874 104.148 204.813 104.245 204.737C104.343 204.66 104.421 204.574 104.48 204.479C104.539 204.383 104.57 204.285 104.572 204.185V203.54L104.046 203.551C103.778 203.554 103.551 203.581 103.364 203.634C103.178 203.687 103.035 203.769 102.936 203.879C102.837 203.99 102.788 204.137 102.788 204.32C102.788 204.529 102.86 204.692 103.006 204.808ZM106.731 206.714C106.917 206.714 107.088 206.685 107.246 206.627C107.404 206.57 107.549 206.467 107.68 206.318C107.812 206.17 107.932 205.96 108.043 205.689L109.662 201.572H108.873L107.791 204.452L106.701 201.572H105.898L107.411 205.357L107.291 205.685C107.276 205.728 107.254 205.774 107.224 205.824C107.194 205.875 107.15 205.922 107.094 205.966C107.038 206.01 106.961 206.044 106.865 206.07C106.768 206.095 106.645 206.103 106.495 206.096L106.1 206.088V206.609L106.237 206.661C106.329 206.697 106.494 206.714 106.731 206.714ZM111.103 202.895V205.47H110.299V201.572H111.08V202.134C111.191 201.963 111.341 201.814 111.531 201.687C111.722 201.56 111.967 201.497 112.268 201.497C112.408 201.497 112.55 201.52 112.694 201.568C112.838 201.616 112.971 201.687 113.092 201.781C113.214 201.875 113.309 201.992 113.38 202.13C113.502 201.944 113.666 201.792 113.872 201.674C114.077 201.556 114.307 201.497 114.563 201.497C114.701 201.497 114.843 201.519 114.991 201.562C115.139 201.606 115.276 201.681 115.403 201.785C115.529 201.889 115.632 202.033 115.711 202.217C115.789 202.4 115.829 202.633 115.829 202.914V205.47H115.021V203.001C115.021 202.787 114.986 202.62 114.914 202.499C114.843 202.379 114.75 202.294 114.636 202.245C114.522 202.196 114.401 202.171 114.274 202.171C114.158 202.171 114.038 202.194 113.913 202.239C113.788 202.284 113.681 202.36 113.594 202.465C113.506 202.571 113.462 202.714 113.462 202.895V205.47H112.658V202.827C112.658 202.684 112.62 202.563 112.544 202.465C112.467 202.367 112.372 202.294 112.258 202.245C112.144 202.196 112.031 202.171 111.918 202.171C111.793 202.171 111.668 202.196 111.543 202.247C111.417 202.297 111.313 202.376 111.229 202.482C111.145 202.589 111.103 202.727 111.103 202.895ZM118.466 205.545C118.724 205.545 118.97 205.498 119.206 205.404C119.441 205.31 119.642 205.17 119.809 204.984C119.975 204.798 120.081 204.572 120.126 204.305H119.382C119.33 204.514 119.219 204.671 119.05 204.776C118.881 204.882 118.681 204.935 118.451 204.935C118.22 204.935 118.028 204.881 117.872 204.775C117.717 204.668 117.601 204.522 117.525 204.337C117.448 204.152 117.41 203.943 117.41 203.71H120.145V203.442C120.145 203.047 120.079 202.705 119.946 202.415C119.813 202.124 119.618 201.899 119.362 201.738C119.105 201.577 118.789 201.497 118.413 201.497C118.033 201.497 117.707 201.584 117.436 201.76C117.166 201.936 116.959 202.18 116.817 202.49C116.674 202.8 116.603 203.158 116.603 203.562C116.603 203.972 116.681 204.325 116.837 204.622C116.994 204.918 117.212 205.146 117.493 205.306C117.773 205.466 118.098 205.545 118.466 205.545ZM117.41 203.185H119.379C119.379 202.982 119.344 202.797 119.273 202.629C119.203 202.462 119.096 202.33 118.952 202.234C118.808 202.137 118.627 202.088 118.409 202.088C118.187 202.088 118.001 202.142 117.853 202.251C117.706 202.359 117.595 202.497 117.521 202.665C117.447 202.834 117.41 203.007 117.41 203.185ZM121.789 205.47V202.895C121.789 202.734 121.832 202.6 121.92 202.494C122.008 202.387 122.123 202.307 122.266 202.254C122.408 202.202 122.559 202.175 122.716 202.175C122.952 202.175 123.144 202.243 123.293 202.379C123.442 202.514 123.517 202.722 123.517 203.001V205.47H124.321V202.914C124.321 202.59 124.258 202.325 124.133 202.12C124.007 201.916 123.842 201.765 123.635 201.668C123.428 201.571 123.204 201.523 122.961 201.523C122.755 201.523 122.574 201.552 122.418 201.61C122.261 201.667 122.13 201.743 122.023 201.836C121.917 201.929 121.832 202.028 121.77 202.134V201.572H120.985V205.47H121.789ZM126.995 205.474C126.896 205.489 126.768 205.496 126.613 205.496C126.325 205.496 126.102 205.458 125.943 205.38C125.784 205.302 125.673 205.189 125.612 205.042C125.551 204.895 125.52 204.717 125.52 204.509V202.152H124.889V201.572H125.543L125.742 200.426H126.324V201.568H127.195V202.152H126.324L126.328 204.479C126.328 204.607 126.341 204.7 126.367 204.759C126.393 204.819 126.439 204.856 126.502 204.873C126.566 204.889 126.653 204.897 126.763 204.897H127.218V205.421C127.168 205.441 127.093 205.459 126.995 205.474ZM131.215 205.545C131.603 205.545 131.931 205.461 132.198 205.291C132.464 205.121 132.667 204.886 132.806 204.584C132.945 204.283 133.015 203.934 133.015 203.54C133.015 203.108 132.941 202.739 132.793 202.433C132.645 202.128 132.437 201.896 132.169 201.736C131.901 201.576 131.585 201.497 131.219 201.497C130.836 201.497 130.509 201.581 130.239 201.751C129.968 201.921 129.762 202.159 129.621 202.465C129.479 202.772 129.408 203.13 129.408 203.54C129.408 203.965 129.483 204.327 129.632 204.626C129.781 204.925 129.991 205.153 130.263 205.31C130.535 205.467 130.852 205.545 131.215 205.545ZM130.629 204.731C130.779 204.859 130.976 204.923 131.219 204.923C131.439 204.923 131.624 204.865 131.773 204.748C131.922 204.631 132.034 204.467 132.109 204.254C132.184 204.042 132.222 203.796 132.222 203.517C132.222 203.258 132.189 203.023 132.123 202.81C132.056 202.598 131.949 202.429 131.801 202.303C131.654 202.178 131.459 202.115 131.219 202.115C130.994 202.115 130.806 202.172 130.656 202.286C130.505 202.401 130.392 202.563 130.316 202.773C130.239 202.983 130.201 203.231 130.201 203.517C130.201 203.771 130.235 204.005 130.302 204.218C130.37 204.432 130.479 204.603 130.629 204.731ZM135.01 205.47V202.152H135.919V201.572H134.995V201.074C134.995 200.906 135.023 200.781 135.079 200.699C135.136 200.617 135.242 200.577 135.397 200.577H135.957L135.953 200.019H135.179C134.858 200.019 134.615 200.101 134.45 200.266C134.285 200.43 134.202 200.668 134.202 200.98V201.572H133.41V202.152H134.202V205.47H135.01ZM145.131 205.553C145.607 205.553 146.016 205.446 146.36 205.231C146.703 205.016 146.966 204.692 147.15 204.258C147.334 203.824 147.426 203.282 147.426 202.631C147.426 202.086 147.337 201.611 147.158 201.208C146.979 200.805 146.722 200.493 146.388 200.273C146.053 200.053 145.656 199.943 145.195 199.943C144.784 199.943 144.426 200.022 144.121 200.181C143.815 200.339 143.577 200.558 143.407 200.837C143.237 201.116 143.151 201.434 143.151 201.791C143.151 202.145 143.232 202.451 143.394 202.709C143.555 202.966 143.778 203.165 144.062 203.304C144.347 203.444 144.673 203.513 145.041 203.513C145.244 203.513 145.428 203.486 145.593 203.432C145.759 203.378 145.903 203.302 146.027 203.202C146.151 203.103 146.248 202.987 146.318 202.854C146.348 203.289 146.314 203.64 146.215 203.909C146.116 204.178 145.968 204.374 145.772 204.497C145.575 204.621 145.347 204.682 145.086 204.682C144.851 204.682 144.655 204.616 144.5 204.484C144.345 204.352 144.245 204.181 144.2 203.97H143.155C143.178 204.289 143.282 204.567 143.467 204.805C143.652 205.042 143.891 205.226 144.185 205.357C144.478 205.488 144.793 205.553 145.131 205.553ZM144.579 202.403C144.744 202.56 144.961 202.639 145.229 202.639C145.382 202.639 145.53 202.604 145.674 202.535C145.818 202.466 145.936 202.379 146.029 202.273C146.122 202.168 146.168 202.058 146.168 201.945C146.171 201.701 146.132 201.492 146.053 201.317C145.975 201.143 145.864 201.009 145.723 200.916C145.581 200.823 145.417 200.776 145.229 200.776C145.056 200.776 144.902 200.817 144.767 200.897C144.632 200.978 144.525 201.091 144.447 201.236C144.37 201.382 144.331 201.551 144.331 201.742C144.331 202.026 144.414 202.246 144.579 202.403ZM152.113 205.47V204.543H149.345V204.494C149.345 204.328 149.395 204.186 149.495 204.068C149.595 203.95 149.728 203.843 149.893 203.749C150.058 203.655 150.239 203.562 150.436 203.472C150.633 203.382 150.83 203.283 151.028 203.178C151.226 203.072 151.407 202.949 151.572 202.808C151.738 202.668 151.87 202.498 151.971 202.3C152.071 202.101 152.121 201.865 152.121 201.591C152.121 201.262 152.041 200.974 151.88 200.727C151.72 200.481 151.493 200.289 151.199 200.151C150.904 200.012 150.554 199.943 150.149 199.943C149.675 199.943 149.282 200.026 148.969 200.192C148.656 200.358 148.421 200.582 148.265 200.865C148.108 201.148 148.027 201.463 148.022 201.809H149.07C149.116 201.49 149.233 201.251 149.424 201.093C149.614 200.935 149.846 200.856 150.119 200.856C150.382 200.856 150.589 200.925 150.74 201.063C150.892 201.201 150.968 201.38 150.968 201.598C150.968 201.769 150.916 201.917 150.814 202.043C150.711 202.169 150.575 202.283 150.406 202.384C150.237 202.486 150.051 202.587 149.848 202.688C149.645 202.788 149.443 202.895 149.241 203.008C149.04 203.121 148.854 203.253 148.685 203.402C148.516 203.552 148.38 203.728 148.278 203.93C148.175 204.132 148.124 204.372 148.124 204.648V205.47H152.113ZM156.376 204.831C156.008 205.312 155.495 205.553 154.839 205.553C154.181 205.553 153.667 205.313 153.297 204.833C152.928 204.353 152.743 203.662 152.743 202.759C152.743 202.156 152.828 201.645 152.998 201.225C153.169 200.805 153.41 200.487 153.724 200.269C154.037 200.052 154.408 199.943 154.839 199.943C155.485 199.943 155.995 200.185 156.368 200.669C156.741 201.153 156.928 201.848 156.928 202.756C156.928 203.658 156.744 204.35 156.376 204.831ZM154.839 204.652C154.514 204.652 154.273 204.506 154.118 204.215C153.963 203.923 153.885 203.438 153.885 202.759C153.885 202.068 153.963 201.571 154.12 201.267C154.276 200.962 154.515 200.81 154.835 200.81C155.156 200.81 155.393 200.961 155.545 201.263C155.698 201.564 155.775 202.063 155.775 202.759C155.775 203.441 155.7 203.926 155.549 204.217C155.399 204.507 155.162 204.652 154.839 204.652ZM161.048 204.264V205.47H159.992L159.996 204.264H157.494V203.359L159.969 200.019H161.048V203.34H161.885V204.264H161.048ZM159.996 203.34H158.508L159.996 201.342V203.34ZM101.586 210.462V211.258H100.778V210.462H101.586ZM101.571 215.91V212.012H100.797V215.91H101.571ZM104.912 215.844C104.683 215.938 104.41 215.985 104.095 215.985C103.824 215.985 103.571 215.943 103.334 215.857C103.097 215.772 102.899 215.637 102.74 215.454C102.581 215.27 102.482 215.035 102.442 214.749H103.159C103.192 214.897 103.254 215.02 103.345 215.117C103.437 215.213 103.547 215.285 103.676 215.331C103.805 215.378 103.943 215.401 104.091 215.401C104.336 215.401 104.535 215.357 104.686 215.267C104.838 215.178 104.914 215.04 104.914 214.854C104.914 214.721 104.873 214.614 104.792 214.534C104.71 214.454 104.582 214.395 104.407 214.357L103.633 214.172C103.312 214.097 103.055 213.977 102.863 213.812C102.67 213.647 102.572 213.417 102.57 213.12C102.57 212.892 102.626 212.688 102.74 212.51C102.854 212.331 103.024 212.191 103.249 212.089C103.475 211.987 103.755 211.937 104.091 211.937C104.529 211.937 104.881 212.035 105.147 212.231C105.412 212.427 105.55 212.711 105.56 213.083H104.865C104.84 212.904 104.759 212.764 104.623 212.662C104.486 212.56 104.306 212.51 104.083 212.51C103.853 212.51 103.664 212.555 103.516 212.647C103.368 212.739 103.295 212.879 103.295 213.068C103.295 213.196 103.348 213.297 103.456 213.371C103.564 213.445 103.725 213.506 103.941 213.554L104.677 213.739C104.867 213.789 105.024 213.855 105.147 213.936C105.269 214.018 105.366 214.108 105.436 214.206C105.506 214.304 105.555 214.406 105.584 214.511C105.613 214.617 105.627 214.716 105.627 214.809C105.627 215.056 105.565 215.266 105.441 215.441C105.318 215.615 105.141 215.75 104.912 215.844ZM109.585 215.985C109.87 215.985 110.126 215.93 110.353 215.82C110.579 215.709 110.763 215.554 110.905 215.356C111.046 215.157 111.131 214.927 111.159 214.666H110.475C110.455 214.784 110.408 214.898 110.336 215.009C110.263 215.12 110.165 215.21 110.041 215.281C109.917 215.351 109.771 215.386 109.603 215.386C109.255 215.386 108.99 215.258 108.809 215.002C108.627 214.745 108.536 214.401 108.536 213.969C108.536 213.496 108.634 213.145 108.829 212.917C109.025 212.688 109.278 212.574 109.588 212.574C109.759 212.574 109.906 212.607 110.03 212.674C110.154 212.74 110.253 212.829 110.326 212.939C110.4 213.05 110.449 213.169 110.471 213.297H111.166C111.136 213.026 111.051 212.789 110.911 212.585C110.77 212.381 110.587 212.222 110.36 212.108C110.134 211.994 109.875 211.937 109.585 211.937C109.206 211.937 108.881 212.022 108.61 212.193C108.338 212.364 108.131 212.603 107.988 212.909C107.845 213.216 107.774 213.571 107.774 213.976C107.774 214.406 107.851 214.771 108.005 215.071C108.159 215.372 108.372 215.599 108.645 215.754C108.918 215.908 109.231 215.985 109.585 215.985ZM114.56 215.731C114.294 215.901 113.966 215.985 113.578 215.985C113.215 215.985 112.897 215.907 112.626 215.75C112.354 215.593 112.144 215.365 111.995 215.066C111.846 214.767 111.771 214.405 111.771 213.98C111.771 213.57 111.842 213.212 111.983 212.905C112.125 212.599 112.331 212.361 112.601 212.191C112.872 212.021 113.199 211.937 113.582 211.937C113.947 211.937 114.264 212.016 114.532 212.176C114.8 212.336 115.008 212.568 115.156 212.873C115.304 213.179 115.377 213.548 115.377 213.98C115.377 214.374 115.308 214.723 115.169 215.024C115.03 215.326 114.827 215.561 114.56 215.731ZM113.582 215.363C113.339 215.363 113.142 215.299 112.992 215.171C112.842 215.043 112.733 214.872 112.665 214.658C112.598 214.445 112.564 214.211 112.564 213.957C112.564 213.671 112.602 213.423 112.678 213.213C112.755 213.003 112.868 212.841 113.018 212.726C113.169 212.612 113.356 212.555 113.582 212.555C113.822 212.555 114.016 212.618 114.164 212.743C114.312 212.869 114.419 213.038 114.485 213.25C114.552 213.463 114.585 213.698 114.585 213.957C114.585 214.236 114.547 214.482 114.472 214.694C114.397 214.907 114.285 215.071 114.136 215.188C113.987 215.305 113.802 215.363 113.582 215.363ZM116.982 213.335V215.91H116.178V212.012H116.959V212.574C117.07 212.403 117.22 212.254 117.41 212.127C117.601 212 117.846 211.937 118.147 211.937C118.287 211.937 118.429 211.96 118.573 212.008C118.717 212.056 118.85 212.127 118.971 212.221C119.093 212.315 119.188 212.432 119.259 212.57C119.381 212.384 119.545 212.232 119.751 212.114C119.956 211.996 120.186 211.937 120.442 211.937C120.58 211.937 120.722 211.959 120.87 212.002C121.018 212.046 121.155 212.121 121.281 212.225C121.408 212.329 121.511 212.473 121.59 212.657C121.668 212.84 121.708 213.073 121.708 213.354V215.91H120.9V213.441C120.9 213.227 120.865 213.06 120.793 212.939C120.722 212.819 120.629 212.734 120.515 212.685C120.401 212.636 120.28 212.611 120.153 212.611C120.037 212.611 119.917 212.634 119.792 212.679C119.667 212.724 119.56 212.8 119.473 212.905C119.385 213.011 119.341 213.154 119.341 213.335V215.91H118.537V213.267C118.537 213.124 118.499 213.003 118.423 212.905C118.346 212.807 118.251 212.734 118.137 212.685C118.023 212.636 117.91 212.611 117.797 212.611C117.672 212.611 117.547 212.636 117.422 212.687C117.296 212.737 117.192 212.816 117.108 212.922C117.024 213.029 116.982 213.167 116.982 213.335ZM123.488 217.124V215.239C123.533 215.324 123.59 215.411 123.659 215.497C123.728 215.584 123.811 215.664 123.909 215.739C124.007 215.813 124.119 215.872 124.247 215.918C124.375 215.963 124.519 215.985 124.679 215.985C125.012 215.985 125.3 215.907 125.543 215.75C125.786 215.593 125.973 215.361 126.105 215.054C126.236 214.748 126.302 214.368 126.302 213.916C126.302 213.466 126.236 213.095 126.105 212.802C125.973 212.509 125.79 212.292 125.556 212.15C125.322 212.008 125.052 211.937 124.747 211.937C124.584 211.937 124.436 211.958 124.302 212.001C124.168 212.043 124.049 212.101 123.945 212.172C123.841 212.244 123.751 212.322 123.676 212.406C123.601 212.49 123.54 212.575 123.492 212.66L123.485 212.012H122.681V217.124H123.488ZM123.943 215.175C124.096 215.306 124.285 215.371 124.51 215.371C124.808 215.371 125.053 215.255 125.244 215.022C125.436 214.79 125.532 214.426 125.532 213.931C125.532 213.506 125.444 213.17 125.267 212.922C125.09 212.675 124.838 212.551 124.51 212.551C124.172 212.551 123.917 212.68 123.744 212.937C123.571 213.195 123.485 213.526 123.485 213.931C123.485 214.195 123.523 214.435 123.599 214.653C123.675 214.87 123.79 215.044 123.943 215.175ZM128.156 215.963C128.214 215.963 128.276 215.957 128.342 215.944C128.408 215.931 128.473 215.915 128.536 215.895V215.382L128.333 215.375C128.185 215.362 128.075 215.308 128.004 215.213C127.933 215.117 127.897 214.979 127.897 214.798V210.308H127.104V214.881C127.104 215.019 127.116 215.153 127.14 215.282C127.164 215.412 127.212 215.527 127.285 215.629C127.357 215.731 127.463 215.812 127.602 215.872C127.741 215.933 127.926 215.963 128.156 215.963ZM131.683 215.844C131.447 215.938 131.201 215.985 130.943 215.985C130.574 215.985 130.25 215.906 129.97 215.746C129.689 215.587 129.471 215.358 129.314 215.062C129.158 214.765 129.079 214.412 129.079 214.002C129.079 213.598 129.151 213.24 129.293 212.93C129.436 212.62 129.643 212.376 129.913 212.2C130.184 212.024 130.509 211.937 130.89 211.937C131.266 211.937 131.582 212.017 131.839 212.178C132.095 212.339 132.29 212.564 132.423 212.855C132.555 213.145 132.622 213.487 132.622 213.882V214.15H129.887C129.887 214.383 129.925 214.592 130.002 214.777C130.078 214.962 130.194 215.108 130.349 215.215C130.504 215.321 130.697 215.375 130.928 215.375C131.158 215.375 131.358 215.322 131.527 215.216C131.696 215.111 131.807 214.954 131.859 214.745H132.603C132.558 215.012 132.452 215.238 132.286 215.424C132.119 215.61 131.918 215.75 131.683 215.844ZM131.855 213.625H129.887C129.887 213.447 129.924 213.274 129.998 213.105C130.072 212.937 130.182 212.799 130.33 212.691C130.478 212.582 130.663 212.528 130.886 212.528C131.104 212.528 131.285 212.577 131.429 212.674C131.573 212.77 131.68 212.902 131.75 213.069C131.82 213.237 131.855 213.422 131.855 213.625ZM135.221 215.914C135.122 215.929 134.995 215.936 134.84 215.936C134.552 215.936 134.329 215.898 134.169 215.82C134.01 215.742 133.9 215.629 133.839 215.482C133.778 215.335 133.747 215.157 133.747 214.949V212.592H133.116V212.012H133.769L133.969 210.866H134.551V212.008H135.422V212.592H134.551L134.555 214.919C134.555 215.047 134.568 215.14 134.594 215.199C134.62 215.259 134.665 215.296 134.729 215.313C134.793 215.329 134.88 215.337 134.99 215.337H135.445V215.861C135.395 215.881 135.32 215.899 135.221 215.914ZM137.865 215.985C138.123 215.985 138.37 215.938 138.605 215.844C138.841 215.75 139.042 215.61 139.208 215.424C139.375 215.238 139.48 215.012 139.526 214.745H138.782C138.729 214.954 138.618 215.111 138.449 215.216C138.28 215.322 138.08 215.375 137.85 215.375C137.62 215.375 137.427 215.321 137.272 215.215C137.116 215.108 137 214.962 136.924 214.777C136.848 214.592 136.809 214.383 136.809 214.15H139.544V213.882C139.544 213.487 139.478 213.145 139.345 212.855C139.212 212.564 139.018 212.339 138.761 212.178C138.504 212.017 138.188 211.937 137.812 211.937C137.432 211.937 137.106 212.024 136.836 212.2C136.565 212.376 136.359 212.62 136.216 212.93C136.073 213.24 136.002 213.598 136.002 214.002C136.002 214.412 136.08 214.765 136.237 215.062C136.393 215.358 136.612 215.587 136.892 215.746C137.173 215.906 137.497 215.985 137.865 215.985ZM136.809 213.625H138.778C138.778 213.422 138.743 213.237 138.673 213.069C138.603 212.902 138.496 212.77 138.352 212.674C138.208 212.577 138.027 212.528 137.809 212.528C137.586 212.528 137.4 212.582 137.253 212.691C137.105 212.799 136.994 212.937 136.92 213.105C136.846 213.274 136.809 213.447 136.809 213.625ZM141.8 215.985C142.016 215.985 142.2 215.957 142.352 215.899C142.505 215.841 142.631 215.767 142.73 215.676C142.829 215.586 142.907 215.49 142.965 215.39C143.022 215.289 143.065 215.196 143.092 215.111L143.183 215.91H143.784V210.308H142.976V212.604C142.938 212.536 142.885 212.463 142.816 212.385C142.747 212.307 142.661 212.234 142.557 212.166C142.453 212.099 142.333 212.043 142.196 212.001C142.06 211.958 141.904 211.937 141.729 211.937C141.383 211.937 141.093 212.019 140.859 212.185C140.625 212.351 140.449 212.584 140.331 212.885C140.214 213.185 140.155 213.538 140.155 213.942C140.155 214.603 140.301 215.109 140.594 215.46C140.887 215.81 141.289 215.985 141.8 215.985ZM141.212 215.002C141.384 215.253 141.631 215.379 141.954 215.379C142.315 215.379 142.575 215.265 142.736 215.037C142.896 214.81 142.976 214.436 142.976 213.916C142.973 213.622 142.937 213.373 142.867 213.169C142.797 212.966 142.689 212.812 142.542 212.707C142.396 212.603 142.203 212.551 141.965 212.551C141.667 212.551 141.424 212.658 141.237 212.873C141.049 213.088 140.955 213.436 140.955 213.916C140.955 214.388 141.041 214.75 141.212 215.002ZM147.543 215.985C147.821 215.985 148.071 215.928 148.293 215.814C148.514 215.7 148.698 215.493 148.843 215.194L148.907 215.91H149.587V213.184C149.587 212.918 149.531 212.692 149.42 212.506C149.308 212.32 149.139 212.178 148.911 212.082C148.683 211.985 148.392 211.937 148.039 211.937C147.721 211.937 147.444 211.982 147.209 212.072C146.974 212.163 146.789 212.297 146.655 212.474C146.521 212.651 146.446 212.869 146.431 213.128H147.13C147.18 212.909 147.286 212.752 147.447 212.657C147.609 212.561 147.794 212.513 148.002 212.513C148.277 212.511 148.481 212.574 148.614 212.702C148.747 212.83 148.813 213.006 148.813 213.23V213.512L148.174 213.531C147.506 213.544 147.019 213.657 146.713 213.871C146.408 214.084 146.255 214.407 146.255 214.839C146.255 215.081 146.31 215.287 146.42 215.458C146.53 215.629 146.682 215.759 146.876 215.85C147.071 215.94 147.293 215.985 147.543 215.985ZM147.246 215.248C147.392 215.365 147.575 215.424 147.795 215.424C147.918 215.424 148.039 215.402 148.159 215.358C148.28 215.314 148.389 215.253 148.486 215.177C148.584 215.1 148.662 215.014 148.721 214.919C148.78 214.823 148.811 214.725 148.813 214.625V213.98L148.287 213.991C148.019 213.994 147.792 214.021 147.605 214.074C147.419 214.127 147.276 214.209 147.177 214.319C147.078 214.43 147.029 214.577 147.029 214.76C147.029 214.969 147.101 215.132 147.246 215.248ZM151.461 215.91V213.335C151.461 213.174 151.505 213.04 151.592 212.934C151.68 212.827 151.795 212.747 151.938 212.694C152.081 212.642 152.231 212.615 152.389 212.615C152.624 212.615 152.816 212.683 152.965 212.819C153.114 212.954 153.189 213.162 153.189 213.441V215.91H153.993V213.354C153.993 213.03 153.93 212.765 153.805 212.56C153.68 212.356 153.514 212.205 153.307 212.108C153.1 212.011 152.876 211.963 152.633 211.963C152.427 211.963 152.246 211.992 152.09 212.05C151.933 212.107 151.802 212.183 151.696 212.276C151.589 212.369 151.505 212.468 151.442 212.574V212.012H150.657V215.91H151.461ZM156.935 215.899C156.783 215.957 156.598 215.985 156.383 215.985C155.872 215.985 155.47 215.81 155.177 215.46C154.884 215.109 154.738 214.603 154.738 213.942C154.738 213.538 154.797 213.185 154.914 212.885C155.032 212.584 155.208 212.351 155.442 212.185C155.676 212.019 155.966 211.937 156.312 211.937C156.487 211.937 156.643 211.958 156.779 212.001C156.916 212.043 157.036 212.099 157.14 212.166C157.244 212.234 157.33 212.307 157.399 212.385C157.468 212.463 157.521 212.536 157.559 212.604V210.308H158.367V215.91H157.766L157.675 215.111C157.648 215.196 157.605 215.289 157.548 215.39C157.49 215.49 157.412 215.586 157.313 215.676C157.214 215.767 157.088 215.841 156.935 215.899ZM156.537 215.379C156.214 215.379 155.967 215.253 155.795 215.002C155.624 214.75 155.538 214.388 155.538 213.916C155.538 213.436 155.632 213.088 155.82 212.873C156.007 212.658 156.25 212.551 156.548 212.551C156.786 212.551 156.979 212.603 157.125 212.707C157.272 212.812 157.38 212.966 157.45 213.169C157.52 213.373 157.556 213.622 157.559 213.916C157.559 214.436 157.479 214.81 157.318 215.037C157.158 215.265 156.898 215.379 156.537 215.379ZM90.5136 225.679V227.564H89.7059V222.452H90.5099L90.5174 223.1C90.565 223.015 90.6263 222.93 90.7014 222.846C90.7766 222.762 90.8661 222.684 90.97 222.612C91.074 222.541 91.1929 222.483 91.3269 222.441C91.4609 222.398 91.6093 222.377 91.7721 222.377C92.0776 222.377 92.3475 222.448 92.5817 222.59C92.8158 222.732 92.9986 222.949 93.1301 223.242C93.2616 223.535 93.3273 223.906 93.3273 224.356C93.3273 224.808 93.2616 225.188 93.1301 225.494C92.9986 225.801 92.8114 226.033 92.5685 226.19C92.3256 226.347 92.0376 226.425 91.7045 226.425C91.5442 226.425 91.4002 226.403 91.2725 226.358C91.1447 226.312 91.032 226.253 90.9344 226.179C90.8367 226.104 90.7534 226.024 90.6845 225.937C90.6157 225.851 90.5587 225.764 90.5136 225.679ZM91.5354 225.811C91.31 225.811 91.1209 225.746 90.9682 225.615C90.8154 225.484 90.7008 225.31 90.6244 225.093C90.548 224.875 90.5099 224.635 90.5099 224.371C90.5099 223.966 90.5963 223.635 90.7691 223.377C90.9419 223.12 91.1973 222.991 91.5354 222.991C91.8635 222.991 92.1158 223.115 92.2924 223.362C92.469 223.61 92.5572 223.946 92.5572 224.371C92.5572 224.866 92.4614 225.23 92.2698 225.462C92.0783 225.695 91.8335 225.811 91.5354 225.811ZM94.9335 224.005V226.35H94.1296V222.452H94.8997V223.251C94.9648 223.06 95.0556 222.9 95.1721 222.77C95.2885 222.641 95.4244 222.543 95.5797 222.476C95.7349 222.41 95.899 222.377 96.0718 222.377C96.1244 222.377 96.1745 222.38 96.222 222.386C96.2696 222.392 96.3072 222.403 96.3347 222.418V223.195C96.3022 223.18 96.2602 223.169 96.2089 223.164C96.1576 223.159 96.1131 223.156 96.0755 223.153C95.9052 223.141 95.75 223.149 95.6097 223.18C95.4695 223.21 95.3486 223.26 95.2472 223.33C95.1458 223.401 95.0681 223.492 95.0143 223.606C94.9604 223.719 94.9335 223.852 94.9335 224.005ZM98.5331 226.425C98.9212 226.425 99.2487 226.341 99.5154 226.171C99.7821 226.001 99.985 225.766 100.124 225.464C100.263 225.163 100.332 224.814 100.332 224.42C100.332 223.988 100.259 223.619 100.111 223.313C99.9631 223.008 99.7552 222.776 99.4872 222.616C99.2193 222.456 98.9025 222.377 98.5368 222.377C98.1536 222.377 97.8268 222.461 97.5563 222.631C97.2858 222.801 97.0799 223.039 96.9384 223.345C96.7969 223.652 96.7261 224.01 96.7261 224.42C96.7261 224.845 96.8006 225.207 96.9496 225.506C97.0986 225.805 97.309 226.033 97.5807 226.19C97.8525 226.347 98.1699 226.425 98.5331 226.425ZM97.947 225.611C98.0973 225.739 98.2939 225.803 98.5368 225.803C98.7572 225.803 98.9419 225.745 99.0909 225.628C99.2399 225.511 99.352 225.347 99.4271 225.134C99.5023 224.922 99.5398 224.676 99.5398 224.397C99.5398 224.138 99.5067 223.903 99.4403 223.69C99.3739 223.478 99.2669 223.309 99.1191 223.183C98.9713 223.058 98.7772 222.995 98.5368 222.995C98.3114 222.995 98.1236 223.052 97.9733 223.166C97.8231 223.281 97.7097 223.443 97.6333 223.653C97.557 223.863 97.5188 224.111 97.5188 224.397C97.5188 224.651 97.5526 224.885 97.6202 225.098C97.6878 225.312 97.7968 225.483 97.947 225.611ZM102.715 226.425C103 226.425 103.256 226.37 103.483 226.26C103.71 226.149 103.894 225.994 104.035 225.796C104.177 225.597 104.261 225.367 104.289 225.106H103.605C103.585 225.224 103.539 225.338 103.466 225.449C103.393 225.56 103.295 225.65 103.171 225.721C103.047 225.791 102.901 225.826 102.733 225.826C102.385 225.826 102.12 225.698 101.939 225.442C101.757 225.185 101.667 224.841 101.667 224.409C101.667 223.936 101.764 223.585 101.96 223.357C102.155 223.128 102.408 223.014 102.718 223.014C102.889 223.014 103.036 223.047 103.16 223.114C103.284 223.18 103.383 223.269 103.457 223.379C103.53 223.49 103.579 223.609 103.601 223.737H104.296C104.266 223.466 104.181 223.229 104.041 223.025C103.9 222.821 103.717 222.662 103.49 222.548C103.264 222.434 103.005 222.377 102.715 222.377C102.336 222.377 102.012 222.462 101.74 222.633C101.468 222.804 101.261 223.043 101.118 223.349C100.975 223.656 100.904 224.011 100.904 224.416C100.904 224.846 100.981 225.211 101.135 225.511C101.289 225.812 101.503 226.039 101.775 226.194C102.048 226.348 102.362 226.425 102.715 226.425ZM107.535 226.284C107.299 226.378 107.053 226.425 106.795 226.425C106.426 226.425 106.102 226.346 105.822 226.186C105.541 226.026 105.323 225.798 105.166 225.502C105.01 225.205 104.931 224.852 104.931 224.442C104.931 224.038 105.003 223.68 105.145 223.37C105.288 223.06 105.495 222.816 105.765 222.64C106.036 222.464 106.361 222.377 106.742 222.377C107.118 222.377 107.434 222.457 107.691 222.618C107.947 222.779 108.142 223.004 108.275 223.295C108.407 223.585 108.474 223.927 108.474 224.322V224.59H105.739C105.739 224.823 105.777 225.032 105.854 225.217C105.93 225.402 106.046 225.548 106.201 225.655C106.356 225.761 106.549 225.815 106.78 225.815C107.01 225.815 107.21 225.762 107.379 225.656C107.548 225.551 107.659 225.394 107.711 225.185H108.455C108.41 225.452 108.304 225.678 108.138 225.864C107.971 226.05 107.77 226.19 107.535 226.284ZM107.707 224.065H105.739C105.739 223.887 105.776 223.714 105.85 223.545C105.924 223.377 106.034 223.239 106.182 223.131C106.33 223.022 106.515 222.968 106.738 222.968C106.956 222.968 107.137 223.017 107.281 223.114C107.425 223.21 107.532 223.342 107.602 223.509C107.672 223.677 107.707 223.862 107.707 224.065ZM111.532 226.284C111.303 226.378 111.03 226.425 110.715 226.425C110.444 226.425 110.191 226.383 109.954 226.297C109.717 226.212 109.519 226.077 109.36 225.894C109.201 225.71 109.102 225.475 109.062 225.189H109.779C109.812 225.337 109.874 225.46 109.965 225.557C110.057 225.653 110.167 225.725 110.296 225.771C110.425 225.818 110.563 225.841 110.711 225.841C110.956 225.841 111.155 225.797 111.306 225.707C111.458 225.618 111.534 225.48 111.534 225.294C111.534 225.161 111.493 225.054 111.411 224.974C111.33 224.894 111.202 224.835 111.026 224.797L110.253 224.612C109.932 224.537 109.675 224.417 109.482 224.252C109.29 224.087 109.192 223.857 109.189 223.56C109.189 223.332 109.246 223.128 109.36 222.95C109.474 222.771 109.644 222.631 109.869 222.529C110.095 222.427 110.375 222.377 110.711 222.377C111.149 222.377 111.501 222.475 111.766 222.671C112.032 222.867 112.17 223.151 112.18 223.523H111.485C111.46 223.344 111.379 223.204 111.242 223.102C111.106 223 110.926 222.95 110.703 222.95C110.473 222.95 110.284 222.995 110.136 223.087C109.988 223.179 109.914 223.319 109.914 223.508C109.914 223.636 109.968 223.737 110.076 223.811C110.184 223.885 110.345 223.946 110.561 223.994L111.297 224.179C111.487 224.229 111.644 224.295 111.766 224.376C111.889 224.458 111.986 224.548 112.056 224.646C112.126 224.744 112.175 224.846 112.204 224.951C112.233 225.057 112.247 225.156 112.247 225.249C112.247 225.496 112.185 225.706 112.061 225.881C111.937 226.055 111.761 226.19 111.532 226.284ZM114.466 226.425C114.781 226.425 115.054 226.378 115.283 226.284C115.512 226.19 115.689 226.055 115.813 225.881C115.937 225.706 115.999 225.496 115.999 225.249C115.999 225.156 115.984 225.057 115.955 224.951C115.927 224.846 115.877 224.744 115.807 224.646C115.737 224.548 115.64 224.458 115.518 224.376C115.395 224.295 115.238 224.229 115.048 224.179L114.312 223.994C114.096 223.946 113.935 223.885 113.827 223.811C113.72 223.737 113.666 223.636 113.666 223.508C113.666 223.319 113.74 223.179 113.887 223.087C114.035 222.995 114.224 222.95 114.455 222.95C114.677 222.95 114.857 223 114.994 223.102C115.13 223.204 115.211 223.344 115.236 223.523H115.931C115.921 223.151 115.783 222.867 115.518 222.671C115.252 222.475 114.9 222.377 114.462 222.377C114.126 222.377 113.846 222.427 113.621 222.529C113.395 222.631 113.226 222.771 113.112 222.95C112.998 223.128 112.941 223.332 112.941 223.56C112.943 223.857 113.041 224.087 113.234 224.252C113.426 224.417 113.683 224.537 114.004 224.612L114.778 224.797C114.953 224.835 115.081 224.894 115.163 224.974C115.244 225.054 115.285 225.161 115.285 225.294C115.285 225.48 115.209 225.618 115.057 225.707C114.906 225.797 114.708 225.841 114.462 225.841C114.314 225.841 114.176 225.818 114.047 225.771C113.918 225.725 113.808 225.653 113.716 225.557C113.625 225.46 113.563 225.337 113.53 225.189H112.813C112.853 225.475 112.953 225.71 113.112 225.894C113.271 226.077 113.468 226.212 113.705 226.297C113.942 226.383 114.195 226.425 114.466 226.425ZM119.258 226.284C119.022 226.378 118.776 226.425 118.518 226.425C118.149 226.425 117.825 226.346 117.545 226.186C117.264 226.026 117.046 225.798 116.889 225.502C116.733 225.205 116.654 224.852 116.654 224.442C116.654 224.038 116.726 223.68 116.868 223.37C117.011 223.06 117.218 222.816 117.488 222.64C117.759 222.464 118.084 222.377 118.465 222.377C118.841 222.377 119.157 222.457 119.414 222.618C119.67 222.779 119.865 223.004 119.998 223.295C120.13 223.585 120.197 223.927 120.197 224.322V224.59H117.462C117.462 224.823 117.5 225.032 117.577 225.217C117.653 225.402 117.769 225.548 117.924 225.655C118.079 225.761 118.272 225.815 118.503 225.815C118.733 225.815 118.933 225.762 119.102 225.656C119.271 225.551 119.382 225.394 119.434 225.185H120.178C120.133 225.452 120.027 225.678 119.861 225.864C119.694 226.05 119.493 226.19 119.258 226.284ZM119.43 224.065H117.462C117.462 223.887 117.499 223.714 117.573 223.545C117.647 223.377 117.757 223.239 117.905 223.131C118.053 223.022 118.238 222.968 118.461 222.968C118.679 222.968 118.86 223.017 119.004 223.114C119.148 223.21 119.255 223.342 119.325 223.509C119.395 223.677 119.43 223.862 119.43 224.065ZM123.005 226.339C122.852 226.397 122.668 226.425 122.453 226.425C121.942 226.425 121.54 226.25 121.247 225.9C120.954 225.549 120.807 225.043 120.807 224.382C120.807 223.978 120.866 223.625 120.984 223.325C121.101 223.024 121.277 222.791 121.512 222.625C121.746 222.459 122.036 222.377 122.381 222.377C122.557 222.377 122.712 222.398 122.849 222.441C122.985 222.483 123.106 222.539 123.21 222.606C123.314 222.674 123.4 222.747 123.469 222.825C123.538 222.903 123.591 222.976 123.628 223.044V220.748H124.436V226.35H123.835L123.745 225.551C123.717 225.636 123.675 225.729 123.617 225.83C123.56 225.93 123.481 226.026 123.382 226.116C123.283 226.207 123.158 226.281 123.005 226.339ZM122.607 225.819C122.284 225.819 122.036 225.693 121.865 225.442C121.693 225.19 121.607 224.828 121.607 224.356C121.607 223.876 121.701 223.528 121.889 223.313C122.077 223.098 122.32 222.991 122.618 222.991C122.856 222.991 123.048 223.043 123.195 223.147C123.341 223.252 123.449 223.406 123.52 223.609C123.59 223.813 123.626 224.062 123.628 224.356C123.628 224.876 123.548 225.25 123.388 225.477C123.228 225.705 122.967 225.819 122.607 225.819ZM129.347 226.284C129.118 226.378 128.846 226.425 128.53 226.425C128.26 226.425 128.006 226.383 127.769 226.297C127.533 226.212 127.335 226.077 127.176 225.894C127.017 225.71 126.917 225.475 126.877 225.189H127.595C127.627 225.337 127.689 225.46 127.781 225.557C127.872 225.653 127.982 225.725 128.111 225.771C128.24 225.818 128.379 225.841 128.526 225.841C128.772 225.841 128.97 225.797 129.122 225.707C129.273 225.618 129.349 225.48 129.349 225.294C129.349 225.161 129.308 225.054 129.227 224.974C129.146 224.894 129.017 224.835 128.842 224.797L128.068 224.612C127.747 224.537 127.491 224.417 127.298 224.252C127.105 224.087 127.007 223.857 127.005 223.56C127.005 223.332 127.062 223.128 127.176 222.95C127.29 222.771 127.459 222.631 127.685 222.529C127.91 222.427 128.191 222.377 128.526 222.377C128.965 222.377 129.317 222.475 129.582 222.671C129.847 222.867 129.985 223.151 129.995 223.523H129.3C129.275 223.344 129.194 223.204 129.058 223.102C128.921 223 128.742 222.95 128.519 222.95C128.288 222.95 128.099 222.995 127.952 223.087C127.804 223.179 127.73 223.319 127.73 223.508C127.73 223.636 127.784 223.737 127.891 223.811C127.999 223.885 128.161 223.946 128.376 223.994L129.112 224.179C129.303 224.229 129.459 224.295 129.582 224.376C129.705 224.458 129.801 224.548 129.871 224.646C129.941 224.744 129.991 224.846 130.02 224.951C130.048 225.057 130.063 225.156 130.063 225.249C130.063 225.496 130.001 225.706 129.877 225.881C129.753 226.055 129.576 226.19 129.347 226.284ZM132.345 226.425C132.523 226.428 132.691 226.402 132.85 226.348C133.01 226.294 133.147 226.206 133.264 226.084C133.38 225.962 133.461 225.8 133.506 225.596L133.596 226.35H134.22V222.452H133.42V224.989C133.42 225.258 133.339 225.462 133.179 225.602C133.019 225.741 132.806 225.811 132.541 225.811C132.248 225.811 132.028 225.738 131.883 225.592C131.738 225.447 131.665 225.257 131.665 225.023V222.452H130.858V225.11C130.858 225.326 130.898 225.516 130.98 225.679C131.061 225.842 131.171 225.979 131.31 226.09C131.449 226.201 131.608 226.283 131.785 226.339C131.963 226.394 132.15 226.423 132.345 226.425ZM137.543 226.26C137.317 226.37 137.06 226.425 136.775 226.425C136.422 226.425 136.109 226.348 135.836 226.194C135.563 226.039 135.349 225.812 135.195 225.511C135.041 225.211 134.964 224.846 134.964 224.416C134.964 224.011 135.036 223.656 135.178 223.349C135.321 223.043 135.528 222.804 135.8 222.633C136.072 222.462 136.397 222.377 136.775 222.377C137.065 222.377 137.324 222.434 137.551 222.548C137.777 222.662 137.961 222.821 138.101 223.025C138.241 223.229 138.326 223.466 138.357 223.737H137.662C137.639 223.609 137.591 223.49 137.517 223.379C137.443 223.269 137.344 223.18 137.22 223.114C137.096 223.047 136.949 223.014 136.779 223.014C136.468 223.014 136.215 223.128 136.02 223.357C135.825 223.585 135.727 223.936 135.727 224.409C135.727 224.841 135.818 225.185 135.999 225.442C136.181 225.698 136.446 225.826 136.794 225.826C136.962 225.826 137.107 225.791 137.231 225.721C137.355 225.65 137.454 225.56 137.526 225.449C137.599 225.338 137.645 225.224 137.665 225.106H138.349C138.321 225.367 138.237 225.597 138.095 225.796C137.954 225.994 137.77 226.149 137.543 226.26ZM140.772 226.425C141.058 226.425 141.314 226.37 141.54 226.26C141.767 226.149 141.951 225.994 142.093 225.796C142.234 225.597 142.319 225.367 142.346 225.106H141.663C141.643 225.224 141.596 225.338 141.524 225.449C141.451 225.56 141.353 225.65 141.229 225.721C141.105 225.791 140.959 225.826 140.791 225.826C140.443 225.826 140.178 225.698 139.996 225.442C139.815 225.185 139.724 224.841 139.724 224.409C139.724 223.936 139.822 223.585 140.017 223.357C140.213 223.128 140.465 223.014 140.776 223.014C140.946 223.014 141.093 223.047 141.217 223.114C141.341 223.18 141.44 223.269 141.514 223.379C141.588 223.49 141.636 223.609 141.659 223.737H142.354C142.324 223.466 142.239 223.229 142.098 223.025C141.958 222.821 141.775 222.662 141.548 222.548C141.321 222.434 141.063 222.377 140.772 222.377C140.394 222.377 140.069 222.462 139.797 222.633C139.526 222.804 139.318 223.043 139.176 223.349C139.033 223.656 138.962 224.011 138.962 224.416C138.962 224.846 139.039 225.211 139.193 225.511C139.347 225.812 139.56 226.039 139.833 226.194C140.106 226.348 140.419 226.425 140.772 226.425ZM145.592 226.284C145.357 226.378 145.11 226.425 144.852 226.425C144.484 226.425 144.16 226.346 143.879 226.186C143.599 226.026 143.38 225.798 143.224 225.502C143.067 225.205 142.989 224.852 142.989 224.442C142.989 224.038 143.06 223.68 143.203 223.37C143.346 223.06 143.552 222.816 143.823 222.64C144.093 222.464 144.419 222.377 144.8 222.377C145.175 222.377 145.491 222.457 145.748 222.618C146.005 222.779 146.2 223.004 146.332 223.295C146.465 223.585 146.531 223.927 146.531 224.322V224.59H143.797C143.797 224.823 143.835 225.032 143.911 225.217C143.988 225.402 144.103 225.548 144.259 225.655C144.414 225.761 144.607 225.815 144.837 225.815C145.068 225.815 145.267 225.762 145.436 225.656C145.605 225.551 145.716 225.394 145.769 225.185H146.513C146.468 225.452 146.362 225.678 146.195 225.864C146.029 226.05 145.828 226.19 145.592 226.284ZM145.765 224.065H143.797C143.797 223.887 143.833 223.714 143.907 223.545C143.981 223.377 144.092 223.239 144.24 223.131C144.388 223.022 144.573 222.968 144.796 222.968C145.014 222.968 145.195 223.017 145.339 223.114C145.483 223.21 145.59 223.342 145.66 223.509C145.73 223.677 145.765 223.862 145.765 224.065ZM149.589 226.284C149.36 226.378 149.088 226.425 148.772 226.425C148.502 226.425 148.248 226.383 148.011 226.297C147.775 226.212 147.577 226.077 147.418 225.894C147.259 225.71 147.159 225.475 147.119 225.189H147.837C147.869 225.337 147.931 225.46 148.023 225.557C148.114 225.653 148.224 225.725 148.353 225.771C148.482 225.818 148.621 225.841 148.768 225.841C149.014 225.841 149.212 225.797 149.364 225.707C149.515 225.618 149.591 225.48 149.591 225.294C149.591 225.161 149.55 225.054 149.469 224.974C149.388 224.894 149.259 224.835 149.084 224.797L148.31 224.612C147.99 224.537 147.733 224.417 147.54 224.252C147.347 224.087 147.25 223.857 147.247 223.56C147.247 223.332 147.304 223.128 147.418 222.95C147.532 222.771 147.702 222.631 147.927 222.529C148.152 222.427 148.433 222.377 148.768 222.377C149.207 222.377 149.559 222.475 149.824 222.671C150.09 222.867 150.227 223.151 150.237 223.523H149.542C149.517 223.344 149.437 223.204 149.3 223.102C149.164 223 148.984 222.95 148.761 222.95C148.531 222.95 148.341 222.995 148.194 223.087C148.046 223.179 147.972 223.319 147.972 223.508C147.972 223.636 148.026 223.737 148.134 223.811C148.241 223.885 148.403 223.946 148.618 223.994L149.354 224.179C149.545 224.229 149.701 224.295 149.824 224.376C149.947 224.458 150.043 224.548 150.113 224.646C150.183 224.744 150.233 224.846 150.262 224.951C150.291 225.057 150.305 225.156 150.305 225.249C150.305 225.496 150.243 225.706 150.119 225.881C149.995 226.055 149.818 226.19 149.589 226.284ZM152.523 226.425C152.839 226.425 153.111 226.378 153.34 226.284C153.57 226.19 153.746 226.055 153.87 225.881C153.994 225.706 154.056 225.496 154.056 225.249C154.056 225.156 154.042 225.057 154.013 224.951C153.984 224.846 153.935 224.744 153.865 224.646C153.794 224.548 153.698 224.458 153.575 224.376C153.453 224.295 153.296 224.229 153.106 224.179L152.369 223.994C152.154 223.946 151.992 223.885 151.885 223.811C151.777 223.737 151.723 223.636 151.723 223.508C151.723 223.319 151.797 223.179 151.945 223.087C152.093 222.995 152.282 222.95 152.512 222.95C152.735 222.95 152.915 223 153.051 223.102C153.188 223.204 153.268 223.344 153.294 223.523H153.989C153.978 223.151 153.841 222.867 153.575 222.671C153.31 222.475 152.958 222.377 152.52 222.377C152.184 222.377 151.904 222.427 151.678 222.529C151.453 222.631 151.283 222.771 151.169 222.95C151.055 223.128 150.998 223.332 150.998 223.56C151.001 223.857 151.098 224.087 151.291 224.252C151.484 224.417 151.741 224.537 152.061 224.612L152.835 224.797C153.011 224.835 153.139 224.894 153.22 224.974C153.302 225.054 153.342 225.161 153.342 225.294C153.342 225.48 153.267 225.618 153.115 225.707C152.964 225.797 152.765 225.841 152.52 225.841C152.372 225.841 152.234 225.818 152.105 225.771C151.976 225.725 151.865 225.653 151.774 225.557C151.683 225.46 151.621 225.337 151.588 225.189H150.87C150.911 225.475 151.01 225.71 151.169 225.894C151.328 226.077 151.526 226.212 151.763 226.297C151.999 226.383 152.253 226.425 152.523 226.425ZM156.245 223.032V226.35H155.437V223.032H154.644V222.452H155.437V221.86C155.437 221.548 155.52 221.31 155.685 221.146C155.85 220.981 156.093 220.899 156.414 220.899H157.188L157.191 221.457H156.632C156.476 221.457 156.37 221.497 156.314 221.579C156.258 221.661 156.23 221.786 156.23 221.954V222.452H157.154V223.032H156.245ZM159.321 226.425C159.498 226.428 159.667 226.402 159.826 226.348C159.985 226.294 160.123 226.206 160.239 226.084C160.355 225.962 160.436 225.8 160.481 225.596L160.572 226.35H161.195V222.452H160.395V224.989C160.395 225.258 160.315 225.462 160.155 225.602C159.994 225.741 159.781 225.811 159.516 225.811C159.223 225.811 159.004 225.738 158.858 225.592C158.713 225.447 158.641 225.257 158.641 225.023V222.452H157.833V225.11C157.833 225.326 157.874 225.516 157.955 225.679C158.036 225.842 158.147 225.979 158.286 226.09C158.425 226.201 158.583 226.283 158.761 226.339C158.939 226.394 159.125 226.423 159.321 226.425ZM163.448 226.384C163.382 226.397 163.32 226.403 163.262 226.403C163.032 226.403 162.847 226.373 162.708 226.312C162.569 226.252 162.463 226.171 162.39 226.069C162.318 225.967 162.27 225.852 162.246 225.722C162.222 225.593 162.21 225.459 162.21 225.321V220.748H163.003V225.238C163.003 225.419 163.038 225.557 163.11 225.653C163.181 225.748 163.291 225.802 163.438 225.815L163.641 225.822V226.335C163.579 226.355 163.514 226.371 163.448 226.384ZM165.383 226.403C165.441 226.403 165.503 226.397 165.569 226.384C165.636 226.371 165.7 226.355 165.763 226.335V225.822L165.56 225.815C165.412 225.802 165.303 225.748 165.231 225.653C165.16 225.557 165.124 225.419 165.124 225.238V220.748H164.332V225.321C164.332 225.459 164.344 225.593 164.367 225.722C164.391 225.852 164.439 225.967 164.512 226.069C164.585 226.171 164.69 226.252 164.829 226.312C164.968 226.373 165.153 226.403 165.383 226.403ZM167.362 227.507C167.204 227.565 167.033 227.594 166.848 227.594C166.61 227.594 166.445 227.577 166.354 227.541L166.216 227.489V226.968L166.611 226.976C166.761 226.983 166.885 226.975 166.981 226.95C167.077 226.924 167.154 226.89 167.21 226.846C167.266 226.802 167.31 226.755 167.34 226.704C167.37 226.654 167.392 226.608 167.407 226.565L167.528 226.237L166.014 222.452H166.818L167.907 225.332L168.989 222.452H169.778L168.159 226.569C168.048 226.84 167.928 227.05 167.796 227.198C167.665 227.347 167.52 227.45 167.362 227.507Z" fill="#36536B"/>
<g id="Group 31">
<ellipse id="Oval" opacity="0.25" cx="128.649" cy="174.15" rx="16.1825" ry="16.24" fill="#BA4270"/>
<path id="Path 2" d="M123.447 175.134L126.093 177.788L133.764 170.09" stroke="#BA4270" stroke-width="3"/>
</g>
</g>
</g>
</g>
<g id="Group 2 Copy">
<rect id="Rectangle_2" x="91.6603" y="239.11" width="75.711" height="17.4" rx="8.7" fill="#BA4270"/>
<path id="Dismiss" fill-rule="evenodd" clip-rule="evenodd" d="M121.303 249.846C120.946 250.036 120.493 250.13 119.944 250.13H118.603V245.518H119.176C119.321 245.518 119.467 245.518 119.612 245.519C119.757 245.52 119.878 245.522 119.976 245.524C120.533 245.537 120.988 245.637 121.339 245.824C121.691 246.011 121.949 246.273 122.113 246.609C122.278 246.945 122.36 247.342 122.36 247.802C122.36 248.28 122.273 248.693 122.099 249.041C121.925 249.389 121.66 249.657 121.303 249.846ZM119.537 249.377H119.963C120.226 249.377 120.465 249.326 120.68 249.224C120.895 249.122 121.067 248.955 121.196 248.724C121.326 248.492 121.39 248.182 121.39 247.795C121.39 247.436 121.333 247.144 121.219 246.92C121.104 246.695 120.941 246.531 120.729 246.427C120.517 246.323 120.266 246.27 119.976 246.27H119.537V249.377ZM123.957 246.36V245.521H123.055V246.36H123.957ZM123.948 246.832V250.13H123.061V246.832H123.948ZM126.041 250.194C126.315 250.194 126.555 250.154 126.763 250.073C126.971 249.992 127.133 249.875 127.249 249.72C127.366 249.566 127.424 249.38 127.424 249.161C127.424 249.086 127.412 249.003 127.388 248.91C127.363 248.818 127.319 248.726 127.256 248.634C127.192 248.543 127.103 248.458 126.987 248.381C126.872 248.303 126.722 248.242 126.537 248.197L126.003 248.076C125.825 248.04 125.694 247.997 125.609 247.947C125.524 247.897 125.482 247.828 125.482 247.741C125.482 247.624 125.534 247.537 125.638 247.479C125.742 247.422 125.874 247.393 126.035 247.393C126.19 247.393 126.319 247.428 126.421 247.497C126.524 247.566 126.587 247.664 126.61 247.792H127.386C127.382 247.467 127.258 247.215 127.016 247.036C126.773 246.857 126.449 246.768 126.045 246.768C125.746 246.768 125.494 246.814 125.288 246.905C125.083 246.997 124.927 247.121 124.822 247.278C124.718 247.436 124.665 247.613 124.665 247.811C124.669 248.083 124.759 248.293 124.935 248.441C125.111 248.589 125.344 248.694 125.635 248.755L126.213 248.877C126.361 248.904 126.468 248.945 126.533 248.998C126.597 249.051 126.63 249.122 126.63 249.212C126.63 249.329 126.575 249.415 126.466 249.472C126.357 249.528 126.213 249.556 126.035 249.556C125.95 249.556 125.861 249.542 125.768 249.513C125.675 249.484 125.592 249.436 125.519 249.368C125.445 249.3 125.395 249.207 125.368 249.09H124.563C124.604 249.35 124.697 249.561 124.843 249.724C124.989 249.886 125.168 250.005 125.38 250.081C125.592 250.156 125.813 250.194 126.041 250.194ZM128.952 248.019V250.13H128.024V246.832H128.933V247.298C129.032 247.153 129.166 247.029 129.335 246.924C129.503 246.82 129.716 246.768 129.972 246.768C130.085 246.768 130.199 246.788 130.316 246.829C130.432 246.869 130.542 246.928 130.645 247.006C130.747 247.083 130.831 247.181 130.894 247.298C131 247.147 131.139 247.021 131.312 246.92C131.485 246.819 131.677 246.768 131.889 246.768C132.012 246.768 132.136 246.788 132.263 246.829C132.389 246.869 132.505 246.935 132.611 247.026C132.717 247.118 132.802 247.24 132.866 247.392C132.931 247.544 132.963 247.731 132.963 247.955V250.13H132.035V248.07C132.035 247.938 132.009 247.832 131.957 247.752C131.905 247.672 131.84 247.615 131.76 247.58C131.681 247.545 131.597 247.527 131.508 247.527C131.425 247.527 131.341 247.544 131.256 247.577C131.172 247.61 131.1 247.662 131.04 247.735C130.981 247.807 130.951 247.902 130.951 248.019V250.13H130.026V247.987C130.026 247.887 130 247.803 129.947 247.735C129.894 247.667 129.828 247.615 129.748 247.58C129.669 247.545 129.588 247.527 129.505 247.527C129.42 247.527 129.335 247.545 129.251 247.58C129.166 247.615 129.095 247.669 129.038 247.743C128.981 247.816 128.952 247.908 128.952 248.019ZM134.612 246.36V245.521H133.709V246.36H134.612ZM134.602 246.832V250.13H133.716V246.832H134.602ZM136.696 250.194C136.969 250.194 137.21 250.154 137.418 250.073C137.625 249.992 137.787 249.875 137.904 249.72C138.02 249.566 138.079 249.38 138.079 249.161C138.079 249.086 138.067 249.003 138.042 248.91C138.018 248.818 137.974 248.726 137.91 248.634C137.847 248.543 137.757 248.458 137.642 248.381C137.526 248.303 137.376 248.242 137.192 248.197L136.658 248.076C136.48 248.04 136.348 247.997 136.264 247.947C136.179 247.897 136.137 247.828 136.137 247.741C136.137 247.624 136.188 247.537 136.292 247.479C136.396 247.422 136.529 247.393 136.69 247.393C136.844 247.393 136.973 247.428 137.076 247.497C137.179 247.566 137.242 247.664 137.265 247.792H138.041C138.036 247.467 137.913 247.215 137.67 247.036C137.428 246.857 137.104 246.768 136.699 246.768C136.4 246.768 136.148 246.814 135.943 246.905C135.737 246.997 135.582 247.121 135.477 247.278C135.372 247.436 135.32 247.613 135.32 247.811C135.324 248.083 135.414 248.293 135.59 248.441C135.766 248.589 135.999 248.694 136.289 248.755L136.868 248.877C137.016 248.904 137.122 248.945 137.187 248.998C137.252 249.051 137.284 249.122 137.284 249.212C137.284 249.329 137.229 249.415 137.12 249.472C137.011 249.528 136.868 249.556 136.69 249.556C136.605 249.556 136.516 249.542 136.423 249.513C136.329 249.484 136.246 249.436 136.173 249.368C136.1 249.3 136.05 249.207 136.022 249.09H135.218C135.258 249.35 135.351 249.561 135.498 249.724C135.644 249.886 135.823 250.005 136.035 250.081C136.247 250.156 136.467 250.194 136.696 250.194ZM140.659 250.073C140.451 250.154 140.21 250.194 139.937 250.194C139.708 250.194 139.488 250.156 139.276 250.081C139.064 250.005 138.885 249.886 138.739 249.724C138.592 249.561 138.499 249.35 138.459 249.09H139.263C139.291 249.207 139.341 249.3 139.414 249.368C139.487 249.436 139.57 249.484 139.664 249.513C139.757 249.542 139.846 249.556 139.931 249.556C140.109 249.556 140.252 249.528 140.361 249.472C140.471 249.415 140.525 249.329 140.525 249.212C140.525 249.122 140.493 249.051 140.428 248.998C140.364 248.945 140.257 248.904 140.109 248.877L139.53 248.755C139.24 248.694 139.007 248.589 138.831 248.441C138.655 248.293 138.565 248.083 138.561 247.811C138.561 247.613 138.613 247.436 138.718 247.278C138.823 247.121 138.978 246.997 139.184 246.905C139.389 246.814 139.641 246.768 139.94 246.768C140.345 246.768 140.669 246.857 140.911 247.036C141.154 247.215 141.277 247.467 141.282 247.792H140.506C140.483 247.664 140.42 247.566 140.317 247.497C140.214 247.428 140.085 247.393 139.931 247.393C139.77 247.393 139.637 247.422 139.533 247.479C139.43 247.537 139.378 247.624 139.378 247.741C139.378 247.828 139.42 247.897 139.505 247.947C139.59 247.997 139.721 248.04 139.899 248.076L140.433 248.197C140.617 248.242 140.767 248.303 140.883 248.381C140.998 248.458 141.088 248.543 141.151 248.634C141.215 248.726 141.259 248.818 141.283 248.91C141.308 249.003 141.32 249.086 141.32 249.161C141.32 249.38 141.262 249.566 141.145 249.72C141.028 249.875 140.866 249.992 140.659 250.073Z" fill="#FBFCFE"/>
</g>
</g>
</g>
<defs>
<filter id="filter0_d_0_1395" x="0" y="0" width="308.908" height="449.34" filterUnits="userSpaceOnUse" color-interpolation-filters="sRGB">
<feFlood flood-opacity="0" result="BackgroundImageFix"/>
<feColorMatrix in="SourceAlpha" type="matrix" values="0 0 0 0 0 0 0 0 0 0 0 0 0 0 0 0 0 0 127 0" result="hardAlpha"/>
<feOffset dx="25" dy="25"/>
<feGaussianBlur stdDeviation="40"/>
<feColorMatrix type="matrix" values="0 0 0 0 0.212302 0 0 0 0 0.32521 0 0 0 0 0.419299 0 0 0 0.300727 0"/>
<feBlend mode="normal" in2="BackgroundImageFix" result="effect1_dropShadow_0_1395"/>
<feBlend mode="normal" in="SourceGraphic" in2="effect1_dropShadow_0_1395" result="shape"/>
</filter>
<filter id="filter1_d_0_1395" x="73.3676" y="132.03" width="131.719" height="140.78" filterUnits="userSpaceOnUse" color-interpolation-filters="sRGB">
<feFlood flood-opacity="0" result="BackgroundImageFix"/>
<feColorMatrix in="SourceAlpha" type="matrix" values="0 0 0 0 0 0 0 0 0 0 0 0 0 0 0 0 0 0 127 0" result="hardAlpha"/>
<feMorphology radius="10" operator="erode" in="SourceAlpha" result="effect1_dropShadow_0_1395"/>
<feOffset dx="10" dy="10"/>
<feGaussianBlur stdDeviation="12.5"/>
<feColorMatrix type="matrix" values="0 0 0 0 0.212302 0 0 0 0 0.32521 0 0 0 0 0.419299 0 0 0 0.25 0"/>
<feBlend mode="normal" in2="BackgroundImageFix" result="effect1_dropShadow_0_1395"/>
<feBlend mode="normal" in="SourceGraphic" in2="effect1_dropShadow_0_1395" result="shape"/>
</filter>
<linearGradient id="paint0_linear_0_1395" x1="59.3038" y1="54.6699" x2="59.3038" y2="61.8178" gradientUnits="userSpaceOnUse">
<stop stop-color="#454545"/>
<stop offset="0.226279" stop-color="#999999"/>
<stop offset="1" stop-color="white"/>
</linearGradient>
<linearGradient id="paint1_linear_0_1395" x1="203.842" y1="104.404" x2="198.374" y2="104.404" gradientUnits="userSpaceOnUse">
<stop stop-color="white" stop-opacity="0.01"/>
<stop offset="0.222178" stop-color="#BABABA"/>
<stop offset="0.54678" stop-color="white" stop-opacity="0.01"/>
<stop offset="1" stop-color="white" stop-opacity="0.01"/>
</linearGradient>
<linearGradient id="paint2_linear_0_1395" x1="55" y1="104.253" x2="60.4766" y2="104.253" gradientUnits="userSpaceOnUse">
<stop stop-color="white" stop-opacity="0.01"/>
<stop offset="0.222178" stop-color="#BABABA"/>
<stop offset="0.54678" stop-color="white" stop-opacity="0.01"/>
<stop offset="1" stop-color="white" stop-opacity="0.01"/>
</linearGradient>
</defs>
</svg>
